<svg viewBox="0 0 20 20" version="1.1" xmlns="http://www.w3.org/2000/svg" xmlns:xlink="http://www.w3.org/1999/xlink">
    <!-- Generator: Sketch 45.1 (43504) - http://www.bohemiancoding.com/sketch -->
    <desc>Created with Sketch.</desc>
    <defs></defs>
    <g id="Личный-кабинет---администратор" stroke="none" stroke-width="1" fill="none" fill-rule="evenodd">
        <g id="Администратор---кампании---активные" transform="translate(-788.000000, -627.000000)" fill-rule="nonzero" fill="#1772E0">
            <g id="кампания" transform="translate(600.000000, 283.000000)">
                <g id="Group-11" transform="translate(22.000000, 334.000000)">
                    <g id="Отчёт-за-месяц" transform="translate(156.000000, 0.000000)">
                        <path d="M28.759646,18.1058018 L27.1549526,17.7494625 C27.0299505,17.3501225 26.8672811,16.9674495 26.678278,16.59911 L27.5466258,15.1540859 C27.8709645,14.6357439 28.0336339,13.8740646 27.5466258,13.3857231 L26.6619444,12.5020417 C26.4236071,12.2627044 26.102935,12.162036 25.7799297,12.162036 C25.4452574,12.162036 25.1062518,12.2713712 24.8535809,12.4470408 L23.4458908,13.3433891 C23.0805513,13.1540526 22.6998783,12.9917165 22.3032051,12.8630477 L21.9431991,11.2400207 C21.8358639,10.6443441 21.3148552,10 20.6248437,10 L19.3748229,10 C18.6841447,10 18.261471,10.6543442 18.1248021,11.2500208 L17.7231287,12.8537142 C17.300455,12.9883831 16.8931149,13.161386 16.5064418,13.3653894 L15.0644177,12.4477075 C14.8104135,12.2720379 14.4727412,12.1627027 14.1367356,12.1627027 C13.8143969,12.1627027 13.4940582,12.2630377 13.2547209,12.5027084 L12.3713729,13.3863898 C11.8830314,13.8747312 12.0470341,14.6364106 12.3713729,15.1547526 L13.2840547,16.6761113 C13.1133852,17.0217837 12.9610494,17.377123 12.8440474,17.7501292 L11.240354,18.1064684 C10.6446774,18.2138036 10,18.7344789 10,19.4248237 L10,20.6748446 C10,21.3651894 10.6543442,21.7878631 11.2500208,21.9245321 L12.8737146,22.3302055 C12.9863831,22.6745446 13.1257188,23.0058834 13.2850548,23.3262221 L12.3710395,24.8495808 C12.0467008,25.3665894 11.8833647,26.1282688 12.3710395,26.6166103 L13.2557209,27.500625 C13.4940582,27.739629 13.8143969,27.840964 14.1374023,27.840964 C14.4727412,27.840964 14.8110802,27.7316289 15.0644177,27.5559593 L16.5097752,26.6339439 C16.899115,26.8402807 17.3084551,27.0149502 17.7344622,27.1496192 L18.1348022,28.7493125 C18.2714712,29.3449891 18.6941449,29.9993333 19.3848231,29.9993333 L20.6348439,29.9993333 C21.3248554,29.9993333 21.8458641,29.3546559 21.9531992,28.7589793 L22.3132052,27.1312855 C22.7058784,27.0042834 23.0828847,26.8442807 23.4432241,26.6572776 L24.8535809,27.5556259 C25.1062518,27.7312955 25.4452574,27.8406307 25.7799297,27.8406307 C26.1036017,27.8406307 26.4239404,27.7389623 26.6619444,27.5002917 L27.5466258,26.6162769 C28.0336339,26.1279355 27.8709645,25.3662561 27.5466258,24.8492475 L26.6776113,23.40189 C26.8519475,23.057551 27.0039501,22.700545 27.1256188,22.3295388 L28.7499792,21.9238654 C29.3456558,21.7871965 30,21.3645227 30,20.6741779 L30,19.4241571 C30,18.7338122 29.3553226,18.2134702 28.759646,18.1058018 Z M28.9999833,20.6741779 C28.9999833,20.7238454 28.8149802,20.8821814 28.5076418,20.9545159 L26.8832814,21.3595227 L26.3476058,21.4935249 L26.1756029,22.018867 C26.0739346,22.3275388 25.9432657,22.6398773 25.7869298,22.9472158 L25.5349256,23.4405573 L25.8199303,23.9145652 L26.698945,25.378923 C26.857281,25.6315939 26.8742812,25.8735979 26.8402807,25.9089318 L25.9535992,26.7936132 C25.9105985,26.8366139 25.8099302,26.840614 25.7799297,26.840614 C25.6569276,26.840614 25.5162586,26.7976133 25.4225904,26.7332789 L25.4069234,26.7229454 L25.3905898,26.7119452 L23.9808997,25.8135969 L23.4945582,25.502925 L22.982883,25.7685961 C22.6618777,25.9359323 22.3325389,26.0732679 22.0052001,26.178603 L21.4605243,26.3556059 L21.3375223,26.9142819 L20.9761829,28.5419757 L20.9685161,28.5809763 C20.9315155,28.7879798 20.7425124,28.9989833 20.6345106,28.9989833 L19.3844897,28.9989833 C19.3344889,28.9989833 19.1754863,28.8146469 19.1038184,28.5059751 L18.7048117,26.9062818 L18.5688095,26.3639394 L18.0354673,26.1952699 C17.680128,26.0826014 17.3237887,25.9322655 16.9761163,25.7485958 L16.462441,25.478258 L15.9720995,25.7909298 L14.5267421,26.7116119 L14.5097418,26.722612 L14.4940749,26.7329455 C14.4004067,26.79728 14.2597377,26.8402807 14.1367356,26.8402807 C14.1067351,26.8402807 14.0057334,26.8362806 13.9623994,26.7916132 L13.0783846,25.9089318 C13.0433841,25.8739312 13.060051,25.6315939 13.2280538,25.3619227 L14.142069,23.8392307 L14.4240737,23.3705562 L14.1800697,22.8802147 C14.0330672,22.5838764 13.9163986,22.302205 13.8247304,22.0195337 L13.6527275,21.4935249 L13.1157186,21.3595227 L11.4730246,20.9495158 C11.1833531,20.8825147 10.9996833,20.7241787 10.9996833,20.6745112 L10.9996833,19.4244904 C10.9996833,19.3161553 11.2093535,19.1274855 11.4163569,19.0894848 L11.437024,19.0864848 L11.4566909,19.081818 L13.0603843,18.7264788 L13.6247271,18.6014767 L13.7973966,18.0508008 C13.8903982,17.7567959 14.0154003,17.4531242 14.179403,17.1211187 L14.4234071,16.6307772 L14.1407357,16.1611027 L13.218387,14.6227437 C13.060051,14.3707395 13.0427174,14.1277355 13.077718,14.0927349 L13.961066,13.2090535 C14.0040667,13.1660528 14.097735,13.1620527 14.1360689,13.1620527 C14.2597377,13.1620527 14.39974,13.2033867 14.4934082,13.2673878 L14.5090752,13.2790547 L14.5267421,13.2897215 L15.9687661,14.2087368 L16.458441,14.5204087 L16.9721162,14.2497375 C17.3137886,14.0700678 17.6681278,13.919732 18.0274671,13.8063968 L18.5581426,13.6363939 L18.6934782,13.0953849 L19.0991517,11.4733579 C19.1654861,11.1833531 19.3258221,10.9996833 19.3744896,10.9996833 L20.6245104,10.9996833 C20.7325122,10.9996833 20.9215154,11.2096868 20.958516,11.4166903 L20.962516,11.437024 L20.9665161,11.4566909 L21.3265221,13.079718 L21.4508575,13.6380606 L21.9958666,13.8140636 C22.3278721,13.9213987 22.6605443,14.0620677 22.9862164,14.2300705 L23.4978916,14.4954083 L23.9842331,14.1860698 L25.3905898,13.2893882 L25.4069234,13.2787213 L25.4225904,13.2670545 C25.5162586,13.20272 25.6569276,13.1617194 25.7799297,13.1617194 C25.8105968,13.1617194 25.9109318,13.1647194 25.9555993,13.2087201 L26.8382806,14.0914015 C26.8742812,14.1264021 26.857281,14.3707395 26.6892782,14.6380773 L25.8209303,16.0834347 L25.5359256,16.5601093 L25.7879298,17.0541176 C25.9649327,17.39979 26.099935,17.7257954 26.2009367,18.0481341 L26.3739396,18.60081 L26.9382823,18.7258121 L28.5429757,19.0811514 L28.5626427,19.0871515 L28.5823097,19.0891515 C28.7889798,19.1274855 29.0003167,19.3158219 29.0003167,19.4241571 L29.0003167,20.6741779 L28.9999833,20.6741779 Z M20.0075001,15.9924332 C17.79713,15.9924332 15.9977666,17.7884631 15.9977666,19.9961666 C15.9977666,22.2045367 17.79713,23.9985666 20.0075001,23.9985666 C22.2192037,23.9985666 24.0179003,22.2042034 24.0179003,19.9961666 C24.0182336,17.7884631 22.2192037,15.9924332 20.0075001,15.9924332 Z M20.0175003,23.022217 C18.3501392,23.022217 16.9927832,21.6691945 16.9927832,20.0071668 C16.9927832,18.3451391 18.3501392,16.9924499 20.0175003,16.9924499 C21.6841947,16.9924499 23.040884,18.3451391 23.040884,20.0071668 C23.040884,21.6691945 21.6841947,23.022217 20.0175003,23.022217 Z" id="Shape"></path>
                    </g>
                </g>
            </g>
        </g>
    </g>
</svg>