<svg viewBox="0 0 21 20" version="1.1" xmlns="http://www.w3.org/2000/svg" xmlns:xlink="http://www.w3.org/1999/xlink">
    <!-- Generator: Sketch 45.1 (43504) - http://www.bohemiancoding.com/sketch -->
    <desc>Created with Sketch.</desc>
    <defs></defs>
    <g id="Личный-кабинет---владелец-площадки" stroke="none" stroke-width="1" fill="none" fill-rule="evenodd">
        <g id="Владелец-площадки---главный-экран---избранные-площадки" transform="translate(-530.000000, -1194.000000)" fill-rule="nonzero" stroke="#C9D1E1">
            <g id="Group-11" transform="translate(330.000000, 942.000000)">
                <g id="Group-12">
                    <g id="активная-кампания---блок">
                        <g id="Group-10" transform="translate(22.000000, 242.000000)">
                            <g id="Отчёт-за-месяц" transform="translate(132.000000, 0.000000)">
                                <path d="M55.7582285,10.9052018 L55.7556141,10.9103559 C55.3136893,11.7692413 54.973826,12.4820788 54.2453841,14.0513013 C54.2156962,14.1152563 54.2156962,14.1152563 54.1859964,14.1792323 C53.7657491,15.0844419 53.541714,15.5614963 53.2806756,16.1009128 L53.1621181,16.3459031 L52.8920089,16.3793271 C52.3974094,16.4405302 52.0231091,16.487422 51.1005474,16.603445 C49.5910899,16.793277 48.8884699,16.8805105 48.0556353,16.9794512 C47.9612601,16.9953196 47.880864,17.0063629 47.7225756,17.0263869 C47.6360475,17.0373125 47.6360475,17.0373125 47.5526893,17.0483545 C47.101564,17.109629 46.8850961,17.1896591 46.7206234,17.3835228 C46.4047976,17.710711 46.4321724,18.3178749 46.7960016,18.6358419 C47.4659834,19.2855383 48.0245725,19.8092474 49.2391111,20.9348324 L49.2870907,20.9792977 C50.0831427,21.7170453 50.454642,22.0630722 50.9029227,22.4867453 L51.1020622,22.6749534 L51.0505785,22.9440783 L51.0148596,23.1307991 C50.5734151,25.4384609 50.3687858,26.4997254 50.1166051,27.7751312 C50.102925,27.8671113 50.0917401,27.9298612 50.0595805,28.1020387 C50.0300064,28.2603737 50.0164815,28.3387363 50.0048429,28.4257219 C49.9684942,28.6973888 49.9839012,28.8756613 50.070469,29.0474796 C50.2735737,29.5105032 50.948946,29.6903816 51.4271011,29.3662659 C52.2122382,28.9485891 52.8687569,28.5889387 54.2261238,27.8376977 L54.3085797,27.7920614 C55.2706886,27.2595678 55.7140159,27.0153464 56.2591452,26.7191527 L56.4954644,26.5907496 L56.7328575,26.7171565 C57.3181582,27.028817 57.7850885,27.285832 58.8193846,27.8614483 L58.846295,27.8764247 C60.2785319,28.6735036 60.9348977,29.030825 61.7786166,29.4616845 C62.3395886,29.7933508 63.1682248,29.1620227 63.002726,28.4862341 C62.8659016,27.6883899 62.7271749,26.9525949 62.4781017,25.6788182 C62.4507197,25.5388311 62.4507197,25.5388311 62.4233073,25.3987775 C62.18401,24.1761628 62.0779568,23.6233129 61.9540038,22.9358225 L61.9062383,22.6708967 L62.1011027,22.4851681 C62.5395856,22.0672429 62.8997345,21.7322654 63.6897693,21.0035264 L63.7142562,20.9809394 C65.0209942,19.7755857 65.6054669,19.2241073 66.3045206,18.5188416 C66.7386125,18.0869759 66.3964681,17.156984 65.7540673,17.0999412 C64.8536301,16.9682009 64.1288296,16.875956 62.4992986,16.6788969 C62.4093183,16.6680156 62.4093183,16.6680156 62.3193125,16.6571268 C61.3026059,16.5341008 60.7326395,16.4629626 60.1053232,16.3786568 L59.8385312,16.3428022 L59.7215765,16.1003458 C59.4459015,15.5288493 59.2238473,15.0561651 58.7525371,14.0435929 L58.7364364,14.0090017 C58.0341287,12.5001412 57.7147243,11.8270036 57.2849838,10.9674441 C57.0435878,10.3760806 56.0431301,10.3353985 55.7582285,10.9052018 Z" id="Shape"></path>
                            </g>
                        </g>
                    </g>
                </g>
            </g>
        </g>
    </g>
</svg>