<svg viewBox="0 0 17 11" version="1.1" xmlns="http://www.w3.org/2000/svg" xmlns:xlink="http://www.w3.org/1999/xlink">
    <!-- Generator: Sketch 45.1 (43504) - http://www.bohemiancoding.com/sketch -->
    <desc>Created with Sketch.</desc>
    <defs></defs>
    <g id="Личный-кабинет---администратор" stroke="none" stroke-width="1" fill="none" fill-rule="evenodd">
        <g id="Администратор---статистика-рекламной-кампании" transform="translate(-329.000000, -95.000000)" fill-rule="nonzero" fill="#1772E0">
            <g id="Меню-навигация" transform="translate(329.000000, 91.000000)">
                <path d="M16.4971565,9.49630676 C16.48014,9.2936057 16.4040026,9.05384716 16.2966703,8.92348915 L12.6306376,4.34093601 C12.2732269,3.9342019 11.7166742,3.89771877 11.3417429,4.1976644 C10.9668117,4.49760698 10.8986143,5.11166746 11.1985935,5.48657124 L13.6712562,8.57978636 L0.916508183,8.57978636 C0.410351264,8.57978636 0,8.99014984 0,9.49630676 C0,10.0024942 0.410351264,10.4128149 0.916508183,10.4128149 L13.6712562,10.4128149 L11.1985935,13.5060301 C10.8986143,13.8809125 10.9783383,14.4811031 11.3417429,14.7949155 C11.7366113,15.1359177 12.3307286,15.0266088 12.6306376,14.6516653 L16.2966703,10.0691244 C16.4518137,9.87922388 16.4944466,9.73979244 16.4971565,9.49630676 Z" id="Shape" transform="translate(8.248578, 9.500000) rotate(-180.000000) translate(-8.248578, -9.500000) "></path>
            </g>
        </g>
    </g>
</svg>