<svg viewBox="0 0 11 15" version="1.1" xmlns="http://www.w3.org/2000/svg" xmlns:xlink="http://www.w3.org/1999/xlink">
    <!-- Generator: Sketch 45.1 (43504) - http://www.bohemiancoding.com/sketch -->
    <desc>Created with Sketch.</desc>
    <defs></defs>
    <g id="Личный-кабинет---администратор" stroke="none" stroke-width="1" fill="none" fill-rule="evenodd">
        <g id="Администратор---статистика-рекламной-кампании" transform="translate(-1017.000000, -152.000000)" fill-rule="nonzero" fill="#C9D1E1">
            <g id="Group-2" transform="translate(330.000000, 132.000000)">
                <path d="M692.499823,20 C692.180218,20 691.921141,20.25105 691.921141,20.5607801 L691.921141,29.9188056 L687.978771,26.3175378 C687.758628,26.1156485 687.358723,26.1255042 687.155948,26.3438103 C686.929176,26.5880244 686.959629,26.9229503 687.183159,27.1324016 L692.102061,31.6186421 C692.329498,31.8106531 692.63162,31.8461786 692.89776,31.6186421 L697.816662,27.1324016 C698.043579,26.9261467 698.068097,26.5649203 697.843872,26.3438103 C697.6314,26.1344094 697.241164,26.1156626 697.021021,26.3175378 L693.078679,29.9188056 L693.078679,20.5607801 C693.078679,20.25105 692.819574,20 692.499968,20 L692.499823,20 Z M687.580921,32.8979496 C687.261316,32.8979496 687.002239,33.1490108 687.002239,33.4587296 C687.002239,33.7684485 687.261316,34.0195097 687.580921,34.0195097 L697.418725,34.0195097 C697.738331,34.0195097 697.997408,33.7684485 697.997408,33.4587296 C697.997408,33.1490108 697.738331,32.8979496 697.418725,32.8979496 L687.580921,32.8979496 Z" id="Shape"></path>
            </g>
        </g>
    </g>
</svg>