<svg width="19px" height="22px" viewBox="0 0 19 22" version="1.1" xmlns="http://www.w3.org/2000/svg" xmlns:xlink="http://www.w3.org/1999/xlink">
    <!-- Generator: Sketch 45.1 (43504) - http://www.bohemiancoding.com/sketch -->
    <desc>Created with Sketch.</desc>
    <defs></defs>
    <g id="Лендинг" stroke="none" stroke-width="1" fill="none" fill-rule="evenodd">
        <g id="лендинг---главный-экран-(1280х768)" transform="translate(-602.000000, -2949.000000)">
            <g id="четвертый-экран" transform="translate(0.000000, 2359.000000)">
                <g id="Group-8">
                    <g id="Group-21" transform="translate(602.000000, 590.000000)">
                        <polygon id="Path-2" fill="#FFFFFF" points="8.97166955 19.7349792 1.54318202 12.7346676 1.4325352 7.78944353 3.89201652 3.65034885 8.12735629 1.52115517 13.0128035 1.92647918 16.7316384 4.56989663 17.4891789 8.46724288 17.2958913 13.6998538 13.1087586 16.7838409"></polygon>
                        <circle id="Oval-3" fill="#BB2920" cx="9.5" cy="9.5" r="3.5"></circle>
                        <path d="M9.36029412,0 C4.19117647,0 0,4.125 0,9.2125 C0,11.4675 0.838235294,13.64 2.375,15.3175 C2.40294118,15.345 2.40294118,15.345 2.43088235,15.3725 L8.60588235,21.45 C8.80147059,21.6425 9.08088235,21.78 9.38823529,21.78 C9.66764706,21.78 9.94705882,21.67 10.1705882,21.45 L16.3455882,15.3725 C16.3735294,15.345 16.3735294,15.345 16.4014706,15.3175 C17.9382353,13.64 18.7764706,11.4675 18.7764706,9.2125 C18.6926471,4.125 14.5014706,0 9.36029412,0 Z M14.725,13.86 L9.36029412,19.1675 L3.99558824,13.86 C2.85,12.5675 2.20735294,10.9175 2.20735294,9.2125 C2.20735294,5.335 5.42058824,2.1725 9.36029412,2.1725 C13.3,2.1725 16.5132353,5.335 16.5132353,9.2125 C16.5132353,10.9175 15.8705882,12.5675 14.725,13.86 Z" id="Shape" fill="#11336D" fill-rule="nonzero"></path>
                    </g>
                </g>
            </g>
        </g>
    </g>
</svg>