
<svg width="22px" height="20px" viewBox="0 0 22 20" version="1.1" xmlns="http://www.w3.org/2000/svg" xmlns:xlink="http://www.w3.org/1999/xlink">
    <!-- Generator: Sketch 45.1 (43504) - http://www.bohemiancoding.com/sketch -->
    <desc>Created with Sketch.</desc>
    <defs></defs>
    <g id="Личный-кабинет---рекламодатель" stroke="none" stroke-width="1" fill="none" fill-rule="evenodd">
        <g id="Рекламодатель---сотрудники---редактирование" transform="translate(-992.000000, -25.000000)" fill-rule="nonzero" fill="#354052">
            <g id="Хедер-меню">
                <g id="Баланс" transform="translate(992.000000, 25.000000)">
                    <path d="M6.21505732,16.8918352 C4.51210668,16.8918352 3.40717367,17.6033489 3.18323515,18.8439174 C3.14888094,19.0350286 3.14048325,19.551614 3.14048325,19.6182866 C3.14048325,19.8292469 3.31149085,20 3.52219663,20 C3.73290242,20 3.90391002,19.8292469 3.90391002,19.6182866 C3.90391002,19.4465156 3.91917855,19.0655656 3.93470156,18.9790439 C4.13192015,17.8847989 5.28367666,17.6550074 6.21505732,17.6550074 C6.85888056,17.6550074 8.37199242,17.7970048 8.51551665,19.1108623 C8.52086064,19.1617574 8.52518672,19.4040182 8.52518672,19.5353276 C8.52518672,19.7462878 8.69619432,19.917041 8.90690011,19.917041 C9.11760589,19.917041 9.28861349,19.7462878 9.28861349,19.5353276 C9.28861349,19.5315104 9.28785006,19.1510694 9.27436286,19.0281577 C9.12854834,17.690634 7.98442609,16.8918352 6.21505732,16.8918352 Z M7.9979133,14.3539501 C7.9979133,13.2413828 7.26476913,12.4642144 6.21505732,12.4642144 C5.16636342,12.4642144 4.43372819,13.2413828 4.43372819,14.3539501 C4.43372819,15.5148677 5.23303602,16.4589722 6.21505732,16.4589722 C7.198351,16.4592266 7.9979133,15.5148677 7.9979133,14.3539501 Z M5.19715496,14.3539501 C5.19715496,13.6699197 5.59668164,13.2276411 6.21505732,13.2276411 C6.83445091,13.2276411 7.23448653,13.6696652 7.23448653,14.3539501 C7.23448653,15.0937106 6.7771939,15.6955454 6.21505732,15.6955454 C5.65368417,15.6957999 5.19715496,15.0939651 5.19715496,14.3539501 Z M20.5170944,7.28970773 L19.7218582,7.28970773 L19.7218582,4.38868602 C19.7218582,3.33617498 18.8658023,2.48011909 17.8132913,2.48011909 L1.62151846,2.48011909 C1.14844834,2.48011909 0.763426768,2.09509753 0.763426768,1.62177293 C0.763426768,1.14844834 1.14844834,0.763426768 1.62151846,0.763426768 L17.4320868,0.763426768 C17.6427926,0.763426768 17.8138002,0.592673648 17.8138002,0.381713384 C17.8138002,0.170753121 17.6427926,0 17.4320868,0 L1.62151846,0 C0.727291235,0 0,0.72754571 0,1.62177293 L0,15.6301452 C0,16.6826562 0.856055883,17.5387121 1.90856692,17.5387121 L2.46535951,17.5387121 C2.6760653,17.5387121 2.84707289,17.367959 2.84707289,17.1569987 C2.84707289,16.9460385 2.6760653,16.7752853 2.46535951,16.7752853 L1.90856692,16.7752853 C1.27721298,16.7752853 0.763426768,16.2614991 0.763426768,15.6301452 L0.763426768,2.99517769 C1.01255837,3.1514257 1.3062232,3.24354586 1.62151846,3.24354586 L17.8132913,3.24354586 C18.4446452,3.24354586 18.9584314,3.75733208 18.9584314,4.38868602 L18.9584314,7.28970773 L15.6184393,7.28970773 C15.1273014,7.28970773 14.7277747,7.68923441 14.7277747,8.1803723 L14.7277747,11.8384589 C14.7277747,12.3295968 15.1273014,12.7291235 15.6184393,12.7291235 L18.9584314,12.7291235 L18.9584314,15.6301452 C18.9584314,16.2614991 18.4446452,16.7752853 17.8132913,16.7752853 L10.0996272,16.7752853 C9.88892141,16.7752853 9.71791381,16.9460385 9.71791381,17.1569987 C9.71791381,17.367959 9.88892141,17.5387121 10.0996272,17.5387121 L17.8132913,17.5387121 C18.8658023,17.5387121 19.7218582,16.6826562 19.7218582,15.6301452 L19.7218582,12.7291235 L20.5170944,12.7291235 C21.0082323,12.7291235 21.407759,12.3295968 21.407759,11.8384589 L21.407759,8.1803723 C21.407759,7.68923441 21.0079778,7.28970773 20.5170944,7.28970773 Z M20.6443322,11.8384589 C20.6443322,11.9086942 20.5870752,11.9656967 20.5170944,11.9656967 L15.6184393,11.9656967 C15.5484585,11.9656967 15.4912015,11.9086942 15.4912015,11.8384589 L15.4912015,8.1803723 C15.4912015,8.11013704 15.5484585,8.0531345 15.6184393,8.0531345 L20.5170944,8.0531345 C20.5870752,8.0531345 20.6443322,8.11013704 20.6443322,8.1803723 L20.6443322,11.8384589 Z M16.7475475,8.72902167 C16.5368417,8.72902167 16.3658341,8.89977479 16.3658341,9.11073505 L16.3658341,10.9080961 C16.3658341,11.1190564 16.5368417,11.2898095 16.7475475,11.2898095 C16.9582533,11.2898095 17.1292609,11.1190564 17.1292609,10.9080961 L17.1292609,9.11073505 C17.1292609,8.89977479 16.9582533,8.72902167 16.7475475,8.72902167 Z M17.4320868,1.24005955 L1.90856692,1.24005955 C1.69786113,1.24005955 1.52685354,1.41081267 1.52685354,1.62177293 C1.52685354,1.8327332 1.69786113,2.00348632 1.90856692,2.00348632 L17.4320868,2.00348632 C17.6427926,2.00348632 17.8138002,1.8327332 17.8138002,1.62177293 C17.8138002,1.41081267 17.6430471,1.24005955 17.4320868,1.24005955 Z" id="Shape"></path>
                </g>
            </g>
        </g>
    </g>
</svg>