
<svg width="19px" height="19px" viewBox="0 0 19 19" version="1.1" xmlns="http://www.w3.org/2000/svg" xmlns:xlink="http://www.w3.org/1999/xlink">
    <!-- Generator: Sketch 45.1 (43504) - http://www.bohemiancoding.com/sketch -->
    <desc>Created with Sketch.</desc>
    <defs></defs>
    <g id="Личный-кабинет---администратор" stroke="none" stroke-width="1" fill="none" fill-rule="evenodd">
        <g id="Администратор---главный-экран---новые-пользователи" transform="translate(-779.000000, -25.000000)" fill-rule="nonzero" fill="#1772E0">
            <g id="Хедер-меню">
                <g id="создать-кампанию/" transform="translate(779.000000, 25.000000)">
                    <path d="M9.49984092,0.00031816906 C4.27920762,0.00031816906 0,4.27952579 0,9.50015908 C0,14.7207924 4.27920762,19 9.49984092,19 C14.7204742,19 18.9996818,14.7207924 18.9996818,9.50015908 C19.0424739,4.27952579 14.7632663,0.00031816906 9.49984092,0.00031816906 Z M9.49984092,18.1869506 C4.74992046,18.1869506 0.855841524,14.2928716 0.855841524,9.50015908 C0.855841524,4.70744655 4.74992046,0.856159693 9.49984092,0.856159693 C14.2497614,0.856159693 18.1438403,4.75023863 18.1438403,9.50015908 C18.1866324,14.2928716 14.2925534,18.1869506 9.49984092,18.1869506 Z M9.92776168,9.07223832 L13.0087912,9.07223832 L13.0087912,9.92807985 L9.92776168,9.92807985 L9.92776168,13.0091093 L9.07192015,13.0091093 L9.07192015,9.92807985 L5.99089067,9.92807985 L5.99089067,9.07223832 L9.07192015,9.07223832 L9.07192015,5.99120884 L9.92776168,5.99120884 L9.92776168,9.07223832 Z" id="Shape"></path>
                </g>
            </g>
        </g>
    </g>
</svg>