<svg viewBox="0 0 19 19" version="1.1" xmlns="http://www.w3.org/2000/svg" xmlns:xlink="http://www.w3.org/1999/xlink">
    <!-- Generator: Sketch 45.1 (43504) - http://www.bohemiancoding.com/sketch -->
    <desc>Created with Sketch.</desc>
    <defs></defs>
    <g id="Личный-кабинет---администратор" stroke="none" stroke-width="1" fill="none" fill-rule="evenodd">
        <g id="Администратор---кампании---неактивные" transform="translate(-1047.000000, -212.000000)" fill-rule="nonzero" fill="#FFFFFF">
            <g id="Group-5" transform="translate(1020.000000, 204.000000)">
                <path d="M34.75,8 C30.4786997,8 27,11.5250497 27,15.8533333 C27,20.1815612 30.478675,23.7066692 34.75,23.7066692 C36.6165247,23.7066692 38.3322247,23.0287745 39.6718747,21.9095732 L44.2187497,26.5250025 C44.5115997,26.8217572 44.9883735,26.8217825 45.2812485,26.5250025 C45.5741485,26.2282225 45.5741485,25.7451159 45.2812485,25.4483359 L40.72655,20.8408359 C41.831025,19.4832985 42.5,17.7447479 42.5,15.8533333 C42.5,11.5250472 39.0212747,8 34.75,8 Z M34.75,9.52 C38.2106247,9.52 40.9999997,12.3465261 40.9999997,15.8533333 C40.9999997,19.3600772 38.2105997,22.1866692 34.7499997,22.1866692 C31.2893747,22.1866692 28.4999998,19.3600772 28.4999998,15.8533333 C28.4999998,12.3465236 31.2893497,9.52 34.7499997,9.52 L34.75,9.52 Z" id="Shape"></path>
            </g>
        </g>
    </g>
</svg>