<svg width="12px" height="12px" viewBox="0 0 12 12" version="1.1" xmlns="http://www.w3.org/2000/svg" xmlns:xlink="http://www.w3.org/1999/xlink">
    <!-- Generator: Sketch 45.1 (43504) - http://www.bohemiancoding.com/sketch -->
    <desc>Created with Sketch.</desc>
    <defs></defs>
    <g id="Личный-кабинет---администратор" stroke="none" stroke-width="1" fill="none" fill-rule="evenodd">
        <g id="Администратор---главный-экран-кампании" transform="translate(-476.000000, -380.000000)" fill="#354052">
            <g id="кампании" transform="translate(328.000000, 221.000000)">
                <g id="Group-9">
                    <g id="ссылка" transform="translate(148.000000, 159.000000)">
                        <path d="M10.467,0.954545455 L8.18181818,0.954545455 L8.15890909,0.954 C8.136,0.952090909 8.11336364,0.949363636 8.09072727,0.944181818 C8.03863636,0.932454545 7.98872727,0.910090909 7.94509091,0.879 C7.83136364,0.798545455 7.76563636,0.661636364 7.77327273,0.522545455 C7.77545455,0.484363636 7.78309091,0.446454545 7.79563636,0.410454545 C7.81090909,0.367090909 7.83327273,0.326181818 7.86190909,0.290454545 C7.89545455,0.248454545 7.93690909,0.213272727 7.98381818,0.187363636 C8.02418182,0.165272727 8.06809091,0.149727273 8.11336364,0.142090909 C8.13354545,0.138818182 8.13845455,0.138818182 8.15890909,0.136909091 C9.26045455,0.106090909 10.3636364,0.106090909 11.4651818,0.136636364 L11.4698182,0.136636364 L11.4730909,0.136909091 L11.4774545,0.136909091 C11.4812727,0.137454545 11.4850909,0.137727273 11.4889091,0.138 L11.5003636,0.138818182 C11.5270909,0.142909091 11.5341818,0.143181818 11.5603636,0.150272727 C11.5690909,0.152727273 11.5775455,0.155181818 11.586,0.157909091 L11.5895455,0.159272727 L11.5974545,0.162272727 L11.6045455,0.164727273 L11.6110909,0.167454545 L11.6151818,0.169363636 C11.6350909,0.177818182 11.6539091,0.187636364 11.6721818,0.199090909 C11.7068182,0.220909091 11.7379091,0.247636364 11.7646364,0.278727273 C11.7774545,0.293727273 11.7891818,0.309545455 11.7998182,0.326181818 L11.8006364,0.327545455 C11.8129091,0.346909091 11.8235455,0.367363636 11.8325455,0.388909091 C11.8431818,0.414818182 11.8505455,0.441 11.8557273,0.468 L11.8565455,0.472090909 C11.8576364,0.478636364 11.8587273,0.484909091 11.8595455,0.491181818 C11.8609091,0.501545455 11.862,0.511909091 11.8630909,0.522545455 C11.8939091,1.62054545 11.8636364,2.71963636 11.8636364,3.81818182 C11.8630909,3.83863636 11.8633636,3.84381818 11.8611818,3.864 C11.856,3.90954545 11.8429091,3.95427273 11.823,3.99572727 C11.7998182,4.044 11.7670909,4.08763636 11.7272727,4.12309091 C11.6986364,4.14872727 11.6664545,4.17027273 11.6320909,4.18663636 C11.4992727,4.25072727 11.3380909,4.23709091 11.2178182,4.15172727 C11.1804545,4.12527273 11.1474545,4.09227273 11.121,4.05490909 C11.0855455,4.005 11.0615455,3.94718182 11.0511818,3.88663636 C11.0473636,3.864 11.046,3.84136364 11.0454545,3.81818182 L11.0454545,1.533 L5.74390909,6.83481818 C5.724,6.85309091 5.71936364,6.85854545 5.69754545,6.87463636 C5.66454545,6.89890909 5.62827273,6.918 5.58954545,6.93163636 C5.54154545,6.94854545 5.49027273,6.95618182 5.43927273,6.95427273 C5.30536364,6.94936364 5.17936364,6.87654545 5.10818182,6.76309091 C5.08636364,6.72845455 5.07,6.69081818 5.05936364,6.65127273 C5.04872727,6.612 5.04409091,6.57081818 5.04572727,6.53018182 C5.04845455,6.45872727 5.07,6.38836364 5.10818182,6.32781818 C5.12454545,6.30163636 5.14418182,6.27872727 5.16518182,6.25609091 L10.467,0.954545455 L10.467,0.954545455 Z" id="Shape"></path>
                        <path d="M5.49327273,1.22918182 C5.52736364,1.23409091 5.53636364,1.23409091 5.56963636,1.24390909 C5.64463636,1.26572727 5.71254545,1.30936364 5.76354545,1.36827273 C5.78918182,1.39772727 5.81045455,1.43072727 5.82654545,1.46618182 C5.84290909,1.50163636 5.85381818,1.53954545 5.85954545,1.578 C5.87618182,1.69445455 5.841,1.815 5.76381818,1.90418182 C5.72972727,1.94345455 5.68827273,1.97618182 5.64218182,1.99990909 C5.59609091,2.02363636 5.54536364,2.03863636 5.49354545,2.04354545 C5.48072727,2.04490909 5.46763636,2.04490909 5.45481818,2.04545455 C5.16790909,2.04545455 4.881,2.04572727 4.59409091,2.04681818 C4.13072727,2.04954545 3.66709091,2.05309091 3.20427273,2.07845455 C2.94709091,2.09236364 2.68963636,2.11281818 2.43490909,2.15236364 C2.36590909,2.163 2.29690909,2.17527273 2.22845455,2.18945455 C2.18181818,2.19927273 2.13545455,2.20990909 2.08936364,2.22190909 C1.87609091,2.277 1.66036364,2.35827273 1.49290909,2.50609091 C1.46127273,2.53390909 1.43181818,2.56418182 1.40427273,2.59636364 C1.32081818,2.69372727 1.25918182,2.808 1.212,2.92663636 C1.155,3.06954545 1.11681818,3.21981818 1.08790909,3.37063636 C1.04672727,3.58363636 1.02272727,3.79963636 1.00581818,4.01536364 C0.976636364,4.38109091 0.966818182,4.74790909 0.961090909,5.11472727 C0.956181818,5.44336364 0.955090909,5.77227273 0.954818182,6.10118182 C0.954545455,6.39736364 0.954545455,6.69354545 0.954818182,6.98972727 C0.955090909,7.40590909 0.956727273,7.82236364 0.967090909,8.23854545 C0.976363636,8.60290909 0.991090909,8.96836364 1.03254545,9.33081818 C1.04345455,9.42627273 1.05654545,9.52118182 1.07236364,9.61581818 C1.10181818,9.78927273 1.14081818,9.96272727 1.203,10.1277273 C1.25427273,10.2638182 1.32272727,10.3952727 1.41981818,10.5046364 C1.61072727,10.7200909 1.89245455,10.8220909 2.16572727,10.8856364 C2.22245455,10.8987273 2.27972727,10.9104545 2.337,10.9208182 C2.40954545,10.9339091 2.48263636,10.9450909 2.55572727,10.9546364 C2.92854545,11.0042727 3.30572727,11.0206364 3.68127273,11.0312727 C4.12445455,11.0435455 4.56818182,11.0449091 5.01163636,11.0451818 C5.30672727,11.0454545 5.60209091,11.0454545 5.89745455,11.0451818 C6.25527273,11.0449091 6.61281818,11.0435455 6.97063636,11.0367273 C7.329,11.0299091 7.68763636,11.0187273 8.04490909,10.9870909 C8.25490909,10.9685455 8.46518182,10.9431818 8.67163636,10.8998182 C8.84618182,10.863 9.02045455,10.8139091 9.18027273,10.7334545 C9.27490909,10.686 9.36381818,10.6265455 9.44018182,10.5526364 C9.63027273,10.3688182 9.72545455,10.1108182 9.78654545,9.85881818 C9.798,9.81136364 9.80836364,9.76336364 9.81790909,9.71536364 C9.83181818,9.645 9.84354545,9.57409091 9.85390909,9.50290909 C9.86836364,9.40309091 9.87981818,9.30272727 9.88963636,9.20236364 C9.92072727,8.88136364 9.93381818,8.55845455 9.942,8.23581818 C9.95618182,7.67263636 9.95427273,7.10890909 9.95454545,6.54518182 L9.95645455,6.50645455 C9.95836364,6.49363636 9.95945455,6.48054545 9.96190909,6.46772727 C9.97172727,6.41672727 9.99136364,6.36790909 10.0197273,6.324 C10.0407273,6.29127273 10.0663636,6.26154545 10.0958182,6.23618182 C10.185,6.159 10.3055455,6.12381818 10.422,6.14045455 C10.4607273,6.14618182 10.4983636,6.15709091 10.5338182,6.17345455 C10.581,6.195 10.6240909,6.22554545 10.6598182,6.26318182 C10.7138182,6.31990909 10.7506364,6.39163636 10.7653636,6.46827273 C10.7719091,6.50236364 10.7710909,6.51109091 10.7727273,6.54572727 C10.7724545,6.83318182 10.7724545,7.12063636 10.7710909,7.40809091 C10.7694545,7.69090909 10.767,7.97372727 10.7599091,8.25654545 C10.755,8.44963636 10.7481818,8.64272727 10.7372727,8.83554545 C10.7290909,8.98445455 10.7184545,9.13309091 10.704,9.28145455 C10.6952727,9.37281818 10.6849091,9.46390909 10.6726364,9.555 C10.6639091,9.61963636 10.6543636,9.68427273 10.6434545,9.74863636 C10.575,10.1522727 10.4585455,10.5594545 10.2185455,10.8965455 C10.1822727,10.9478182 10.1432727,10.9969091 10.1018182,11.0438182 C10.0369091,11.1171818 9.96545455,11.1853636 9.88909091,11.2467273 C9.77645455,11.3372727 9.65290909,11.4136364 9.52309091,11.4769091 C9.23127273,11.619 8.91109091,11.6956364 8.59172727,11.7455455 C8.36127273,11.7815455 8.12863636,11.8036364 7.896,11.8191818 C7.65245455,11.8358182 7.40809091,11.8448182 7.164,11.8508182 C6.813,11.8598182 6.46172727,11.862 6.11072727,11.8630909 C5.74390909,11.8641818 5.37736364,11.8639091 5.01054545,11.8633636 C4.58890909,11.8630909 4.167,11.8617273 3.74536364,11.8513636 C3.35727273,11.8418182 2.96836364,11.826 2.58245455,11.7823636 C2.49409091,11.7722727 2.40572727,11.7608182 2.31790909,11.7471818 C1.89327273,11.6811818 1.46127273,11.5663636 1.10618182,11.3146364 C1.05518182,11.2786364 1.00581818,11.2396364 0.958909091,11.1984545 C0.891818182,11.1392727 0.829636364,11.0751818 0.772363636,11.0064545 C0.732272727,10.9584545 0.694909091,10.908 0.66,10.8559091 C0.439909091,10.5275455 0.331090909,10.1383636 0.265636364,9.75245455 C0.251181818,9.66572727 0.238636364,9.579 0.227727273,9.49172727 C0.216272727,9.39927273 0.206727273,9.30627273 0.198545455,9.21354545 C0.184909091,9.06245455 0.175090909,8.91136364 0.167727273,8.76 C0.156272727,8.53363636 0.149727273,8.30727273 0.145363636,8.08090909 C0.139909091,7.78827273 0.138,7.49590909 0.137181818,7.20327273 C0.135818182,6.83563636 0.136090909,6.468 0.136636364,6.10036364 C0.136909091,5.70709091 0.138272727,5.31381818 0.146454545,4.92054545 C0.151090909,4.698 0.158181818,4.47518182 0.170181818,4.25290909 C0.178090909,4.104 0.188454545,3.95536364 0.202636364,3.807 C0.213272727,3.69354545 0.226363636,3.58036364 0.242454545,3.46772727 C0.251454545,3.40390909 0.261545455,3.34036364 0.273,3.27681818 C0.341727273,2.895 0.456818182,2.51127273 0.683454545,2.19136364 C0.719727273,2.14036364 0.758454545,2.09127273 0.799909091,2.04436364 C0.864818182,1.97072727 0.936,1.90281818 1.01263636,1.84118182 C1.13209091,1.74490909 1.26409091,1.665 1.40290909,1.59954545 C1.66881818,1.47463636 1.95709091,1.40236364 2.24590909,1.35409091 C2.44854545,1.32027273 2.65281818,1.29790909 2.85736364,1.28154545 C3.06545455,1.26490909 3.27409091,1.25454545 3.483,1.24718182 C3.78518182,1.23654545 4.08763636,1.23218182 4.39009091,1.23 C4.74490909,1.227 5.09972727,1.22754545 5.45427273,1.22727273 C5.46736364,1.22781818 5.48018182,1.22836364 5.49327273,1.22918182 L5.49327273,1.22918182 Z" id="Shape"></path>
                    </g>
                </g>
            </g>
        </g>
    </g>
</svg>