<svg width="21px" height="20px" viewBox="0 0 21 20" version="1.1" xmlns="http://www.w3.org/2000/svg" xmlns:xlink="http://www.w3.org/1999/xlink">
    <!-- Generator: Sketch 45.1 (43504) - http://www.bohemiancoding.com/sketch -->
    <desc>Created with Sketch.</desc>
    <defs></defs>
    <g id="Личный-кабинет---администратор" stroke="none" stroke-width="1" fill="none" fill-rule="evenodd">
        <g id="Администратор---списки---редактирование-шаблон" transform="translate(-871.000000, -325.000000)">
            <g id="Group-15" transform="translate(470.000000, 204.000000)">
                <g id="Group-11">
                    <g id="Group-4" transform="translate(0.000000, 46.000000)">
                        <g id="Group-2" transform="translate(21.000000, 69.000000)">
                            <g id="Добавить-компанию" transform="translate(380.142136, 6.000000)">
                                <circle id="Oval-3" fill="#1772E0" cx="10" cy="10" r="10"></circle>
                                <path d="M9.9998905,6 C9.76744906,6 9.57902854,6.18258269 9.57902854,6.40784197 L9.57902854,13.213711 L6.71183674,10.5945947 C6.55173193,10.4477655 6.26089066,10.4549333 6.1134174,10.6137021 C5.94849155,10.7913132 5.97063886,11.0348968 6.13320681,11.1872258 L9.71060711,14.4499616 C9.87601717,14.5896067 10.0957429,14.6154434 10.2893002,14.4499616 L13.8667005,11.1872258 C14.0317316,11.0372215 14.0495631,10.7745101 13.8864899,10.6137021 C13.731964,10.4614098 13.4481543,10.4477757 13.2880495,10.5945947 L10.4208788,13.213711 L10.4208788,6.40784197 C10.4208788,6.18258269 10.2324372,6 9.99999576,6 L9.9998905,6 Z" id="Shape" fill="#FFFFFF" fill-rule="nonzero" transform="translate(10.000019, 10.282294) rotate(-180.000000) translate(-10.000019, -10.282294) "></path>
                            </g>
                        </g>
                    </g>
                </g>
            </g>
        </g>
    </g>
</svg>