<svg width="24px" height="18px" viewBox="0 0 24 18" version="1.1" xmlns="http://www.w3.org/2000/svg" xmlns:xlink="http://www.w3.org/1999/xlink">
    <!-- Generator: Sketch 45.1 (43504) - http://www.bohemiancoding.com/sketch -->
    <desc>Created with Sketch.</desc>
    <defs></defs>
    <g id="Мобильная-версия---лендинг" stroke="none" stroke-width="1" fill="none" fill-rule="evenodd">
        <g id="iPhone-7---лендинг" transform="translate(-330.000000, -88.000000)" fill-rule="nonzero" fill="#1772E0">
            <g id="хедер">
                <g transform="translate(0.000000, 65.000000)" id="Group">
                    <g transform="translate(330.000000, 23.000000)">
                        <path d="M22.3043478,15.6521739 L1.17391304,15.6521739 C0.508695652,15.6521739 0,16.1608696 0,16.826087 C0,17.4913043 0.508695652,18 1.17391304,18 L22.3043478,18 C22.9695652,18 23.4782609,17.4913043 23.4782609,16.826087 C23.4782609,16.1608696 22.9695652,15.6521739 22.3043478,15.6521739 Z" id="Shape"></path>
                        <path d="M22.3043478,7.82608696 L1.17391304,7.82608696 C0.508695652,7.82608696 0,8.33478261 0,9 C0,9.66521739 0.508695652,10.173913 1.17391304,10.173913 L22.3043478,10.173913 C22.9695652,10.173913 23.4782609,9.66521739 23.4782609,9 C23.4782609,8.33478261 22.9695652,7.82608696 22.3043478,7.82608696 Z" id="Shape"></path>
                        <path d="M22.3043478,0 L1.17391304,0 C0.508695652,0 0,0.508695652 0,1.17391304 C0,1.83913043 0.508695652,2.34782609 1.17391304,2.34782609 L22.3043478,2.34782609 C22.9695652,2.34782609 23.4782609,1.83913043 23.4782609,1.17391304 C23.4782609,0.508695652 22.9695652,0 22.3043478,0 Z" id="Shape"></path>
                    </g>
                </g>
            </g>
        </g>
    </g>
</svg>