<?xml version="1.0" encoding="UTF-8"?>
<svg width="17px" height="18px" viewBox="0 0 17 18" version="1.1" xmlns="http://www.w3.org/2000/svg" xmlns:xlink="http://www.w3.org/1999/xlink">
    <!-- Generator: Sketch 45.1 (43504) - http://www.bohemiancoding.com/sketch -->
    <title>Shape</title>
    <desc>Created with Sketch.</desc>
    <defs></defs>
    <g id="Лендинг" stroke="none" stroke-width="1" fill="none" fill-rule="evenodd">
        <g id="лендинг---главный-экран-(1280х768)" transform="translate(-943.000000, -26.000000)" fill-rule="nonzero" fill="#BB2920">
            <g id="ХЕДЕР">
                <g id="Group-3" transform="translate(226.000000, 11.000000)">
                    <path d="M725.241733,24.9390997 C722.963237,24.9390997 721.488915,25.8964513 721.182563,27.543096 C721.144269,27.7920074 721.125122,28.5004476 721.125122,28.5770357 C721.125122,28.8450942 721.335739,29.0557115 721.603797,29.0557115 C721.871856,29.0557115 722.082473,28.8450942 722.082473,28.5770357 C722.082473,28.3472713 722.10162,27.8303015 722.120767,27.7154193 C722.407973,26.1262157 724.188647,25.8964513 725.241733,25.8964513 C726.122497,25.8964513 728.190376,26.0879216 728.381847,27.8877426 C728.381847,27.9643307 728.400994,28.2898303 728.400994,28.4621535 C728.400994,28.730212 728.611611,28.9408293 728.879669,28.9408293 C729.147728,28.9408293 729.358345,28.730212 729.358345,28.4621535 C729.358345,28.4621535 729.358345,27.9451837 729.339198,27.7728604 C729.147728,26.0113335 727.615965,24.9390997 725.241733,24.9390997 Z M725.241733,24.2881007 C726.543731,24.2881007 727.615965,23.0243966 727.615965,21.473487 C727.615965,19.9991656 726.639467,18.9652259 725.241733,18.9652259 C723.844,18.9652259 722.867501,19.9991656 722.867501,21.473487 C722.867501,23.0243966 723.939735,24.2881007 725.241733,24.2881007 Z M725.241733,19.9225775 C726.10335,19.9225775 726.658614,20.5352825 726.658614,21.473487 C726.658614,22.4882797 726.026762,23.3307491 725.241733,23.3307491 C724.456705,23.3307491 723.824853,22.5074267 723.824853,21.473487 C723.824853,20.5352825 724.380117,19.9225775 725.241733,19.9225775 Z M733.379222,20.2863711 C733.072869,19.3481665 732.555899,18.6780204 731.809165,18.2567857 C731.00499,17.77811 730.200814,17.3185812 729.396639,16.8590524 C728.592464,16.3995237 727.788289,15.9399949 726.984113,15.4613191 C726.467143,15.1741137 725.950174,15.0209374 725.375763,15.0017904 C724.686469,14.9826434 724.092911,15.1166726 723.575942,15.4230251 C723.116413,15.6910835 722.656884,15.9399949 722.216502,16.2080534 C721.06768,16.8590524 719.880565,17.5483456 718.712596,18.2376387 C717.602068,18.9077848 717.00851,19.9417245 717.00851,21.2054286 C716.989363,22.4499856 717.00851,23.7136897 717.00851,24.9390997 C717.00851,25.5518047 717.00851,26.1836568 717.00851,26.7963618 C717.00851,27.1601554 717.065951,27.504802 717.161686,27.7920074 C717.468039,28.6727709 717.985008,29.342917 718.712596,29.7641517 C719.516771,30.2236804 720.301799,30.6832092 721.105975,31.1427379 C721.91015,31.6022667 722.695178,32.0617955 723.480206,32.5213242 C723.958882,32.8085297 724.456705,32.9617059 725.031116,33 C725.126851,33 725.222586,33 725.299174,33 C725.931026,33 726.467143,32.8468237 726.964966,32.5596183 C728.535023,31.6405608 730.181667,30.6832092 731.770871,29.7641517 C732.287841,29.4769462 732.709076,29.0748585 733.015428,28.5387417 C733.360075,27.9451837 733.513251,27.4473609 733.513251,26.911244 L733.513251,21.1862816 C733.513251,20.9182231 733.474957,20.5927236 733.379222,20.2863711 Z M732.555899,26.949538 C732.555899,27.2941846 732.441017,27.6579782 732.172959,28.0983599 C731.962341,28.4813006 731.675136,28.768506 731.292195,28.9791234 C729.683845,29.8981809 728.0372,30.8555325 726.467143,31.77459 C726.065056,32.0043544 725.624674,32.1000895 725.088557,32.0809425 C724.667322,32.0426484 724.303529,31.9277662 723.958882,31.7171489 C723.173854,31.2576201 722.369679,30.7980914 721.565503,30.3385626 C720.761328,29.8790339 719.957153,29.4195051 719.172124,28.9599764 C718.636007,28.6536238 718.272214,28.1940951 718.042449,27.504802 C717.965861,27.3133316 717.927567,27.0835673 717.927567,26.8155088 C717.927567,26.2028038 717.927567,25.5709518 717.927567,24.9582468 C717.927567,23.7328368 717.927567,22.4691327 717.927567,21.2245756 C717.927567,20.2672241 718.329655,19.5779309 719.172124,19.0609611 C720.320946,18.3716679 721.508062,17.7015218 722.656884,17.0313757 C723.116413,16.7633173 723.575942,16.5144059 724.03547,16.2463474 C724.380117,16.0357301 724.743911,15.9399949 725.203439,15.9399949 C725.241733,15.9399949 725.280027,15.9399949 725.318321,15.9399949 C725.739556,15.959142 726.122497,16.0740242 726.48629,16.2846415 C727.290466,16.7633173 728.094641,17.222846 728.898816,17.6823748 C729.702992,18.1419036 730.507167,18.6014323 731.311342,19.0801081 C731.847459,19.3864606 732.211253,19.8651364 732.441017,20.5735766 C732.498458,20.7650469 732.536752,20.9948112 732.536752,21.2245756 L732.536752,26.949538 L732.555899,26.949538 Z" id="Shape"></path>
                </g>
            </g>
        </g>
    </g>
</svg>