
<svg width="80px" height="80px" viewBox="0 0 80 80" version="1.1" xmlns="http://www.w3.org/2000/svg" xmlns:xlink="http://www.w3.org/1999/xlink">
    <!-- Generator: Sketch 45.1 (43504) - http://www.bohemiancoding.com/sketch -->
    <desc>Created with Sketch.</desc>
    <defs></defs>
    <g id="Лендинг" stroke="none" stroke-width="1" fill="none" fill-rule="evenodd">
        <g id="лендинг---главный-экран-(1280х768)" transform="translate(-273.000000, -1796.000000)">
            <g id="третий-экран" transform="translate(0.000000, 1712.000000)">
                <g id="где-мы-размещаемся" transform="translate(1.000000, 0.000000)">
                    <g id="мед.учреждения" transform="translate(252.000000, 51.000000)">
                        <g id="Group-6" transform="translate(20.000000, 33.000000)">
                            <polyline id="Fill-50" fill="#DDE4F0" points="9.18032787 46.3626161 9.18032787 70.523416 32.1311475 70.523416 32.1311475 64.6464646 47.8688525 64.6464646 47.8688525 70.523416 70.8196721 70.523416 70.8196721 46.3626161 9.18032787 46.3626161"></polyline>
                            <path d="M36.6622951,5.13123151 C36.6622951,7.00663198 38.1888525,8.52680339 40.0721311,8.52680339 C41.9554098,8.52680339 43.4819672,7.00663198 43.4819672,5.13123151 C43.4819672,3.25583104 41.9554098,1.73565963 40.0721311,1.73565963 C38.1888525,1.73565963 36.6622951,3.25583104 36.6622951,5.13123151" id="Fill-51" fill="#BC242A"></path>
                            <path d="M55.0819672,65.9524538 L60.3278689,65.9524538 C61.0518033,65.9524538 61.6393443,65.3680237 61.6393443,64.6464646 C61.6393443,63.9255586 61.0518033,63.3404755 60.3278689,63.3404755 L55.0819672,63.3404755 C54.3580328,63.3404755 53.7704918,63.9255586 53.7704918,64.6464646 C53.7704918,65.3680237 54.3580328,65.9524538 55.0819672,65.9524538 Z M24.9180328,63.3404755 L19.6721311,63.3404755 C18.947541,63.3404755 18.3606557,63.9255586 18.3606557,64.6464646 C18.3606557,65.3680237 18.947541,65.9524538 19.6721311,65.9524538 L24.9180328,65.9524538 C25.6419672,65.9524538 26.2295082,65.3680237 26.2295082,64.6464646 C26.2295082,63.9255586 25.6419672,63.3404755 24.9180328,63.3404755 Z M55.0819672,59.4225079 L60.3278689,59.4225079 C61.0518033,59.4225079 61.6393443,58.8380777 61.6393443,58.1165187 C61.6393443,57.3956127 61.0518033,56.8105295 60.3278689,56.8105295 L55.0819672,56.8105295 C54.3580328,56.8105295 53.7704918,57.3956127 53.7704918,58.1165187 C53.7704918,58.8380777 54.3580328,59.4225079 55.0819672,59.4225079 Z M43.2786885,59.4225079 L47.8688525,59.4225079 C48.5927869,59.4225079 49.1803279,58.8380777 49.1803279,58.1165187 C49.1803279,57.3956127 48.5927869,56.8105295 47.8688525,56.8105295 L43.2786885,56.8105295 C42.5540984,56.8105295 41.9672131,57.3956127 41.9672131,58.1165187 C41.9672131,58.8380777 42.5540984,59.4225079 43.2786885,59.4225079 Z M32.1311475,59.4225079 L36.7213115,59.4225079 C37.4452459,59.4225079 38.0327869,58.8380777 38.0327869,58.1165187 C38.0327869,57.3956127 37.4452459,56.8105295 36.7213115,56.8105295 L32.1311475,56.8105295 C31.4065574,56.8105295 30.8196721,57.3956127 30.8196721,58.1165187 C30.8196721,58.8380777 31.4065574,59.4225079 32.1311475,59.4225079 Z M24.9180328,56.8105295 L19.6721311,56.8105295 C18.947541,56.8105295 18.3606557,57.3956127 18.3606557,58.1165187 C18.3606557,58.8380777 18.947541,59.4225079 19.6721311,59.4225079 L24.9180328,59.4225079 C25.6419672,59.4225079 26.2295082,58.8380777 26.2295082,58.1165187 C26.2295082,57.3956127 25.6419672,56.8105295 24.9180328,56.8105295 Z M55.0819672,52.2395674 L60.3278689,52.2395674 C61.0518033,52.2395674 61.6393443,51.6551372 61.6393443,50.9335782 C61.6393443,50.2126722 61.0518033,49.627589 60.3278689,49.627589 L55.0819672,49.627589 C54.3580328,49.627589 53.7704918,50.2126722 53.7704918,50.9335782 C53.7704918,51.6551372 54.3580328,52.2395674 55.0819672,52.2395674 Z M43.2786885,52.2395674 L47.8688525,52.2395674 C48.5927869,52.2395674 49.1803279,51.6551372 49.1803279,50.9335782 C49.1803279,50.2126722 48.5927869,49.627589 47.8688525,49.627589 L43.2786885,49.627589 C42.5540984,49.627589 41.9672131,50.2126722 41.9672131,50.9335782 C41.9672131,51.6551372 42.5540984,52.2395674 43.2786885,52.2395674 Z M32.1311475,52.2395674 L36.7213115,52.2395674 C37.4452459,52.2395674 38.0327869,51.6551372 38.0327869,50.9335782 C38.0327869,50.2126722 37.4452459,49.627589 36.7213115,49.627589 L32.1311475,49.627589 C31.4065574,49.627589 30.8196721,50.2126722 30.8196721,50.9335782 C30.8196721,51.6551372 31.4065574,52.2395674 32.1311475,52.2395674 Z M19.6721311,52.2395674 L24.9180328,52.2395674 C25.6419672,52.2395674 26.2295082,51.6551372 26.2295082,50.9335782 C26.2295082,50.2126722 25.6419672,49.627589 24.9180328,49.627589 L19.6721311,49.627589 C18.947541,49.627589 18.3606557,50.2126722 18.3606557,50.9335782 C18.3606557,51.6551372 18.947541,52.2395674 19.6721311,52.2395674 Z M53.7704918,32.6497296 L49.1803279,32.6497296 C48.4557377,32.6497296 47.8688525,33.2348128 47.8688525,33.9557188 C47.8688525,34.6772778 48.4557377,35.261708 49.1803279,35.261708 L53.7704918,35.261708 C54.4944262,35.261708 55.0819672,34.6772778 55.0819672,33.9557188 C55.0819672,33.2348128 54.4944262,32.6497296 53.7704918,32.6497296 Z M53.7704918,29.3847567 L49.1803279,29.3847567 C48.4557377,29.3847567 47.8688525,29.9698398 47.8688525,30.6907458 C47.8688525,31.4123049 48.4557377,31.996735 49.1803279,31.996735 L53.7704918,31.996735 C54.4944262,31.996735 55.0819672,31.4123049 55.0819672,30.6907458 C55.0819672,29.9698398 54.4944262,29.3847567 53.7704918,29.3847567 Z M52.4590164,18.9368432 C52.4590164,19.6584022 53.0459016,20.2428324 53.7704918,20.2428324 L66.8852459,20.2428324 C67.6091803,20.2428324 68.1967213,19.6584022 68.1967213,18.9368432 C68.1967213,18.2159371 67.6091803,17.630854 66.8852459,17.630854 L53.7704918,17.630854 C53.0459016,17.630854 52.4590164,18.2159371 52.4590164,18.9368432 Z M30.8196721,32.6497296 L26.2295082,32.6497296 C25.504918,32.6497296 24.9180328,33.2348128 24.9180328,33.9557188 C24.9180328,34.6772778 25.504918,35.261708 26.2295082,35.261708 L30.8196721,35.261708 C31.5436066,35.261708 32.1311475,34.6772778 32.1311475,33.9557188 C32.1311475,33.2348128 31.5436066,32.6497296 30.8196721,32.6497296 Z M30.8196721,29.3847567 L26.2295082,29.3847567 C25.504918,29.3847567 24.9180328,29.9698398 24.9180328,30.6907458 C24.9180328,31.4123049 25.504918,31.996735 26.2295082,31.996735 L30.8196721,31.996735 C31.5436066,31.996735 32.1311475,31.4123049 32.1311475,30.6907458 C32.1311475,29.9698398 31.5436066,29.3847567 30.8196721,29.3847567 Z M13.1147541,20.2428324 L26.2295082,20.2428324 C26.9534426,20.2428324 27.5409836,19.6584022 27.5409836,18.9368432 C27.5409836,18.2159371 26.9534426,17.630854 26.2295082,17.630854 L13.1147541,17.630854 C12.3901639,17.630854 11.8032787,18.2159371 11.8032787,18.9368432 C11.8032787,19.6584022 12.3901639,20.2428324 13.1147541,20.2428324 Z M42.7547541,14.8314662 C42.0845902,14.8314662 41.5409836,15.3727987 41.5409836,16.0408122 C41.5409836,16.7088256 42.0845902,17.2501581 42.7547541,17.2501581 C43.3954098,17.2501581 43.9167213,17.7686359 43.9167213,18.4066116 C43.9167213,18.9858178 43.4754098,19.4749107 42.8904918,19.5428222 C42.2793443,19.6146516 41.8177049,20.1305173 41.8177049,20.7436792 C41.8177049,21.3574941 42.2786885,21.8733599 42.8898361,21.9451893 C43.4754098,22.0137537 43.9167213,22.5028466 43.9167213,23.0820529 C43.9167213,23.7193756 43.3954098,24.2378533 42.7547541,24.2378533 C42.0845902,24.2378533 41.5409836,24.7798388 41.5409836,25.4471993 C41.5409836,26.1152127 42.0845902,26.6571982 42.7547541,26.6571982 C44.7344262,26.6571982 46.344918,25.0527905 46.344918,23.0820529 C46.344918,22.1933272 46.0144262,21.373166 45.4636066,20.7443322 C46.0144262,20.1154984 46.344918,19.2953372 46.344918,18.4066116 C46.344918,16.4352209 44.7344262,14.8314662 42.7547541,14.8314662 Z M46.802623,5.65950413 C46.8236066,5.64644424 48.9652459,4.39073564 50.9639344,5.19457198 C51.4786885,5.40222426 52.1127869,5.79989797 52.7842623,6.22107948 C54.2222951,7.12286501 56.0360656,8.26103459 58.0295082,8.30674421 C57.4334426,9.37634935 56.4609836,10.624222 54.9619672,11.3333741 C52.8104918,12.3513927 50.0262295,12.0614631 46.6878689,10.4740333 C46.082623,10.1860626 45.3580328,10.4413835 45.0688525,11.0440975 C44.7803279,11.6468115 45.0367213,12.3690236 45.6419672,12.6563412 C48.0131148,13.7840629 50.1947541,14.3482502 52.1698361,14.3482502 C53.5619672,14.3482502 54.8498361,14.0681155 56.0281967,13.5058872 C60.0577049,11.5854301 61.1632787,7.10262218 61.2085246,6.91260076 C61.3180328,6.45289256 61.1481967,5.97163555 60.7744262,5.68105295 C60.3993443,5.38916437 59.8898361,5.34280175 59.4688525,5.55959596 C57.8452459,6.39608203 56.2111475,5.51258035 54.0786885,4.17459443 C53.3127869,3.69399041 52.5895082,3.24081216 51.8740984,2.95284155 C48.7127869,1.68015509 45.6563934,3.52225283 45.5272131,3.60126518 C44.9567213,3.95192327 44.7790164,4.6969901 45.1311475,5.26574839 C45.4839344,5.83385369 46.2327869,6.00950923 46.802623,5.65950413 Z M24.0039344,13.5058872 C25.1822951,14.0681155 26.4708197,14.3482502 27.8629508,14.3482502 C29.837377,14.3482502 32.0203279,13.7840629 34.3908197,12.6563412 C34.9960656,12.3690236 35.2531148,11.6468115 34.9632787,11.0440975 C34.6747541,10.4413835 33.9481967,10.1860626 33.344918,10.4740333 C30.0065574,12.0608101 27.2222951,12.3500867 25.0701639,11.3333741 C23.5704918,10.624222 22.5993443,9.37634935 22.002623,8.30674421 C23.9960656,8.26103459 25.8098361,7.12286501 27.2478689,6.22173248 C27.9193443,5.79989797 28.5540984,5.40222426 29.0688525,5.19457198 C31.0655738,4.39138863 33.1954098,5.6392613 33.2347541,5.66211611 C33.8065574,6.01016223 34.5495082,5.8318947 34.9016393,5.2650954 C35.2537705,4.6969901 35.0760656,3.95192327 34.5055738,3.60126518 C34.3770492,3.52225283 31.3186885,1.68015509 28.1580328,2.95284155 C27.4432787,3.24081216 26.7193443,3.69399041 25.9534426,4.17459443 C23.8209836,5.51258035 22.1868852,6.39608203 20.5632787,5.55959596 C20.1429508,5.34280175 19.6321311,5.38981737 19.2583607,5.68105295 C18.8845902,5.97163555 18.7147541,6.45289256 18.8242623,6.91260076 C18.8688525,7.10262218 19.975082,11.5854301 24.0039344,13.5058872 Z M37.8767213,5.13123151 C37.8767213,6.08068564 38.4904918,6.88191001 39.3416393,7.18359351 C39.3422951,7.18359351 39.3436066,7.18294052 39.3442623,7.18294052 C39.5344262,7.18294052 39.7134426,7.22538516 39.8767213,7.29786756 C39.9422951,7.30374452 40.0052459,7.3174574 40.0721311,7.3174574 C41.282623,7.3174574 42.267541,6.33665952 42.267541,5.13123151 C42.267541,3.92580349 41.282623,2.94565861 40.0721311,2.94565861 C38.8616393,2.94565861 37.8767213,3.92580349 37.8767213,5.13123151 Z M38.0327869,24.7040914 L38.0327869,16.784573 C37.8104918,17.0660137 37.4695082,17.2501581 37.0819672,17.2501581 C36.4413115,17.2501581 35.92,17.7686359 35.92,18.4066116 C35.92,18.9858178 36.3613115,19.4742577 36.9468852,19.5428222 C37.5580328,19.6146516 38.0183607,20.1311703 38.0183607,20.7443322 C38.0183607,21.3574941 37.5580328,21.8733599 36.9468852,21.9451893 C36.3613115,22.0137537 35.92,22.5028466 35.92,23.0820529 C35.92,23.7193756 36.4413115,24.2378533 37.0819672,24.2378533 C37.4695082,24.2378533 37.8104918,24.4226507 38.0327869,24.7040914 Z M35.4485246,5.13123151 C35.4485246,2.59238853 37.522623,0.526313641 40.0721311,0.526313641 C42.6216393,0.526313641 44.6957377,2.59238853 44.6957377,5.13123151 C44.6957377,7.47287012 42.9298361,9.40834609 40.6557377,9.69501071 L40.6557377,31.996735 C40.6557377,32.7182941 40.0681967,33.3027242 39.3442623,33.3027242 C38.6196721,33.3027242 38.0327869,32.7182941 38.0327869,31.996735 L38.0327869,26.1909601 C37.8104918,26.4724008 37.4695082,26.6571982 37.0819672,26.6571982 C35.1022951,26.6571982 33.4918033,25.0527905 33.4918033,23.0820529 C33.4918033,22.1933272 33.8222951,21.373166 34.3737705,20.7443322 C33.8222951,20.1154984 33.4918033,19.2953372 33.4918033,18.4066116 C33.4918033,16.4352209 35.1022951,14.8314662 37.0819672,14.8314662 C37.4695082,14.8314662 37.8104918,15.0156107 38.0327869,15.2970513 L38.0327869,9.25750434 C36.5042623,8.50525457 35.4485246,6.94067952 35.4485246,5.13123151 Z M78.6885246,76.4003673 L1.31147541,76.4003673 C0.586885246,76.4003673 0,76.9854505 0,77.7063565 C0,78.4279155 0.586885246,79.0123457 1.31147541,79.0123457 L78.6885246,79.0123457 C79.412459,79.0123457 80,78.4279155 80,77.7063565 C80,76.9854505 79.412459,76.4003673 78.6885246,76.4003673 Z M7.91672131,71.8294052 L30.8085246,71.8294052 L30.8085246,64.967085 C30.8085246,64.960555 30.8104918,64.9546781 30.8104918,64.9481481 L30.8104918,64.9390062 C30.8104918,64.2722987 31.3527869,63.7309662 32.0229508,63.7309662 L47.8918033,63.7309662 C48.5619672,63.7309662 49.1042623,64.2722987 49.1042623,64.9390062 L49.1042623,71.8294052 L71.8918033,71.8294052 L71.8918033,45.2479543 L7.91672131,45.2479543 L7.91672131,71.8294052 Z M33.2367213,71.8294052 L46.5711475,71.8294052 L46.5711475,66.176431 L33.2367213,66.176431 L33.2367213,71.8294052 Z M0,73.1353943 C0,72.4144883 0.586885246,71.8294052 1.31147541,71.8294052 L5.48852459,71.8294052 L5.48852459,45.0566269 L1.96721311,45.0566269 C1.24327869,45.0566269 0.655737705,44.4721967 0.655737705,43.7506377 C0.655737705,43.0297317 1.24327869,42.4446485 1.96721311,42.4446485 L78.0327869,42.4446485 C78.7567213,42.4446485 79.3442623,43.0297317 79.3442623,43.7506377 C79.3442623,44.4721967 78.7567213,45.0566269 78.0327869,45.0566269 L74.32,45.0566269 L74.32,71.8294052 L78.6885246,71.8294052 C79.412459,71.8294052 80,72.4144883 80,73.1353943 C80,73.8569534 79.412459,74.4413835 78.6885246,74.4413835 L73.5429508,74.4413835 C73.4072131,74.4942761 73.2603279,74.5256198 73.1055738,74.5256198 L48.2885246,74.5256198 C48.1344262,74.5954903 47.9652459,74.6372819 47.7855738,74.6372819 L32.0229508,74.6372819 C31.8432787,74.6372819 31.6740984,74.5954903 31.52,74.5256198 L6.70295082,74.5256198 C6.54819672,74.5256198 6.40131148,74.4942761 6.26557377,74.4413835 L1.31147541,74.4413835 C0.586885246,74.4413835 0,73.8569534 0,73.1353943 Z M0.655737705,38.526681 C0.655737705,37.8057749 1.24327869,37.2206918 1.96721311,37.2206918 L19.0163934,37.2206918 L19.0163934,24.1607999 L13.1147541,24.1607999 C12.3901639,24.1607999 11.8032787,23.5763698 11.8032787,22.8548107 C11.8032787,22.1339047 12.3901639,21.5488215 13.1147541,21.5488215 L26.2295082,21.5488215 C26.9534426,21.5488215 27.5409836,22.1339047 27.5409836,22.8548107 C27.5409836,23.5763698 26.9534426,24.1607999 26.2295082,24.1607999 L21.6393443,24.1607999 L21.6393443,37.2206918 L58.3606557,37.2206918 L58.3606557,24.1607999 L53.7704918,24.1607999 C53.0459016,24.1607999 52.4590164,23.5763698 52.4590164,22.8548107 C52.4590164,22.1339047 53.0459016,21.5488215 53.7704918,21.5488215 L66.8852459,21.5488215 C67.6091803,21.5488215 68.1967213,22.1339047 68.1967213,22.8548107 C68.1967213,23.5763698 67.6091803,24.1607999 66.8852459,24.1607999 L60.9836066,24.1607999 L60.9836066,37.2206918 L78.0327869,37.2206918 C78.7567213,37.2206918 79.3442623,37.8057749 79.3442623,38.526681 C79.3442623,39.24824 78.7567213,39.8326701 78.0327869,39.8326701 L1.96721311,39.8326701 C1.24327869,39.8326701 0.655737705,39.24824 0.655737705,38.526681 L0.655737705,38.526681 Z" id="Fill-52" fill="#23375B"></path>
                            <path d="M46.1645902,7.42716049 C46.1645902,7.42716049 48.2327869,5.75745332 50.2865574,6.46725844 C52.3409836,7.17706356 53.7665574,8.59602081 55.4013115,8.76318743 C55.4013115,8.76318743 51.7121311,13.522212 46.1645902,7.42716049" id="Fill-53" fill="#BC242A"></path>
                            <path d="M33.9377049,7.42716049 C33.9377049,7.42716049 31.8695082,5.75745332 29.815082,6.46725844 C27.7613115,7.17706356 26.3357377,8.59602081 24.7009836,8.76318743 C24.7009836,8.76318743 28.3901639,13.522212 33.9377049,7.42716049" id="Fill-54" fill="#BC242A"></path>
                        </g>
                    </g>
                </g>
            </g>
        </g>
    </g>
</svg>