
<svg width="80px" height="73px" viewBox="0 0 80 73" version="1.1" xmlns="http://www.w3.org/2000/svg" xmlns:xlink="http://www.w3.org/1999/xlink">
    <!-- Generator: Sketch 45.1 (43504) - http://www.bohemiancoding.com/sketch -->
    <desc>Created with Sketch.</desc>
    <defs></defs>
    <g id="Лендинг" stroke="none" stroke-width="1" fill="none" fill-rule="evenodd">
        <g id="лендинг---главный-экран-(1280х768)" transform="translate(-404.000000, -1801.000000)">
            <g id="третий-экран" transform="translate(0.000000, 1712.000000)">
                <g id="где-мы-размещаемся" transform="translate(1.000000, 0.000000)">
                    <g id="рестораны-и-кафе" transform="translate(383.000000, 51.000000)">
                        <g id="Group-4" transform="translate(20.000000, 38.000000)">
                            <path d="M72.83968,34.34688 C71.29856,31.14688 64.87488,28.19456 57.1808,28.19456 C49.48672,28.19456 43.0624,31.14688 41.52128,34.34688 L72.83968,34.34688" id="Fill-1" fill="#BC242A"></path>
                            <path d="M45.40928,30.70912 C45.44512,30.77632 45.49312,30.832 45.53344,30.89408 C46.84096,30.22336 48.38912,29.67104 50.11776,29.26656 C50.08576,28.9504 49.99488,28.63552 49.83552,28.33792 L48.72448,26.26496 C48.06976,25.04256 46.54848,24.5824 45.32608,25.23712 C44.10368,25.89184 43.64352,27.41376 44.29824,28.63616 L45.40928,30.70912" id="Fill-2" fill="#BC242A"></path>
                            <path d="M56.92544,28.48704 C57.6832,28.48704 58.2432,28.5184 59.5232,28.5664 L59.5232,26.47424 C59.5232,25.08736 58.02944,23.96352 56.6432,23.96352 C55.25632,23.96352 53.7632,25.08736 53.7632,26.47424 L53.7632,28.6016 C55.6832,28.52672 55.97248,28.48704 56.92544,28.48704" id="Fill-3" fill="#BC242A"></path>
                            <path d="M68.30848,30.63104 L69.37728,28.63616 C70.032,27.41376 69.57184,25.89184 68.34944,25.23712 C67.12768,24.5824 65.60576,25.04256 64.95104,26.26496 L63.84064,28.33792 C63.7056,28.58944 63.62944,28.8544 63.58592,29.12128 C65.34656,29.48672 66.94656,29.99552 68.30848,30.63104" id="Fill-4" fill="#BC242A"></path>
                            <path d="M15.61088,63.78688 C12.9248,60.58688 10.8832,57.52256 10.8832,53.87712 L10.8832,49.70688 L40.9632,49.70688 L40.9632,53.87712 C40.9632,57.55712 39.65248,60.58688 37.13728,63.78688 L15.61088,63.78688" id="Fill-5" fill="#DDE4F0"></path>
                            <path d="M75.456,46.48192 C76.11072,46.48192 76.64128,47.01248 76.64128,47.6672 C76.64128,48.32192 76.11072,48.85248 75.456,48.85248 C74.5728,48.85248 74.1024,49.456 73.34592,50.52352 C72.5472,51.65056 71.45344,53.19488 69.30176,53.19488 C67.15072,53.19488 66.05696,51.65056 65.25824,50.52352 C64.50176,49.456 64.03136,48.85248 63.1488,48.85248 C62.26752,48.85248 61.79648,49.456 61.04128,50.52288 C60.2432,51.65056 59.14944,53.19488 56.99904,53.19488 C54.848,53.19488 53.75424,51.65056 52.95616,50.52352 C52.20032,49.456 51.72928,48.85248 50.84736,48.85248 C50.19264,48.85248 49.66208,48.32192 49.66208,47.6672 C49.66208,47.01248 50.19264,46.48192 50.84736,46.48192 C52.9984,46.48192 54.09216,48.0256 54.89024,49.15328 C55.64608,50.2208 56.11712,50.82432 56.99904,50.82432 C57.88032,50.82432 58.35072,50.2208 59.10656,49.15328 C59.90464,48.0256 60.9984,46.48192 63.1488,46.48192 C65.29984,46.48192 66.3936,48.0256 67.19232,49.15328 C67.9488,50.2208 68.4192,50.82432 69.30176,50.82432 C70.18496,50.82432 70.65536,50.2208 71.41184,49.15328 C72.21056,48.0256 73.30432,46.48192 75.456,46.48192 Z M66.04672,9.04512 C66.99008,9.04512 67.7568,9.81184 67.7568,10.75456 C67.7568,11.69728 66.99008,12.46464 66.04672,12.46464 C65.104,12.46464 64.33728,11.69728 64.33728,10.75456 C64.33728,9.81184 65.104,9.04512 66.04672,9.04512 Z M66.04672,14.8352 C68.29696,14.8352 70.12736,13.0048 70.12736,10.75456 C70.12736,8.50496 68.29696,6.67456 66.04672,6.67456 C63.79712,6.67456 61.96608,8.50496 61.96608,10.75456 C61.96608,13.0048 63.79712,14.8352 66.04672,14.8352 Z M37.7632,4.26688 C37.7632,3.55968 38.336,2.98688 39.0432,2.98688 L40.9632,2.98688 L40.9632,1.70688 C40.9632,0.99968 41.536,0.42688 42.2432,0.42688 C42.94976,0.42688 43.5232,0.99968 43.5232,1.70688 L43.5232,2.98688 L44.1632,2.98688 C44.86976,2.98688 45.4432,3.55968 45.4432,4.26688 C45.4432,4.97344 44.86976,5.54688 44.1632,5.54688 L43.5232,5.54688 L43.5232,6.18688 C43.5232,6.89344 42.94976,7.46688 42.2432,7.46688 C41.536,7.46688 40.9632,6.89344 40.9632,6.18688 L40.9632,5.54688 L39.0432,5.54688 C38.336,5.54688 37.7632,4.97344 37.7632,4.26688 Z M13.2928,23.74784 C13.2928,21.53152 15.09632,19.728 17.31264,19.728 C18.98752,19.728 20.34944,18.36608 20.34944,16.6912 L20.34944,7.04128 C20.34944,6.38656 20.88,5.856 21.53472,5.856 C22.18944,5.856 22.72,6.38656 22.72,7.04128 L22.72,16.6912 C22.72,19.67296 20.2944,22.09856 17.31264,22.09856 C16.4032,22.09856 15.66336,22.8384 15.66336,23.74784 C15.66336,24.40256 15.1328,24.93312 14.47808,24.93312 C13.82336,24.93312 13.2928,24.40256 13.2928,23.74784 Z M23.34464,22.77824 C25.01888,22.77824 26.3808,21.41568 26.3808,19.74144 L26.3808,10.09152 C26.3808,9.4368 26.91136,8.9056 27.56608,8.9056 C28.2208,8.9056 28.75136,9.4368 28.75136,10.09152 L28.75136,19.74144 C28.75136,22.7232 26.32576,25.1488 23.34464,25.1488 C22.43456,25.1488 21.69472,25.88864 21.69472,26.79808 C21.69472,27.70816 22.43456,28.448 23.34464,28.448 L30.83264,28.50816 C33.04,28.50816 34.84352,30.31168 34.84352,32.528 C34.84352,34.74496 33.04,36.54784 30.82304,36.54784 L19.24288,36.54784 C18.58816,36.54784 18.0576,36.01728 18.0576,35.36256 C18.0576,34.70784 18.58816,34.17728 19.24288,34.17728 L30.82304,34.17728 C31.73312,34.17728 32.47296,33.43744 32.47296,32.528 C32.47296,31.61856 31.73312,30.87872 30.82304,30.87872 L23.33504,30.81792 C21.12768,30.81856 19.32416,29.01504 19.32416,26.79808 C19.32416,24.58176 21.12768,22.77824 23.34464,22.77824 Z M7.0432,40.74688 C7.0432,40.03968 7.616,39.46688 8.3232,39.46688 L39.6832,39.46688 C40.38976,39.46688 40.9632,40.03968 40.9632,40.74688 C40.9632,41.45344 40.38976,42.02688 39.6832,42.02688 L8.3232,42.02688 C7.616,42.02688 7.0432,41.45344 7.0432,40.74688 Z M33.2832,52.26688 C33.2832,51.55968 33.856,50.98688 34.5632,50.98688 L35.8432,50.98688 C36.54976,50.98688 37.1232,51.55968 37.1232,52.26688 C37.1232,52.97344 36.54976,53.54688 35.8432,53.54688 L34.5632,53.54688 C33.856,53.54688 33.2832,52.97344 33.2832,52.26688 Z M29.4432,53.54688 L13.4432,53.54688 C12.736,53.54688 12.1632,52.97344 12.1632,52.26688 C12.1632,51.55968 12.736,50.98688 13.4432,50.98688 L29.4432,50.98688 C30.14976,50.98688 30.7232,51.55968 30.7232,52.26688 C30.7232,52.97344 30.14976,53.54688 29.4432,53.54688 Z M69.7632,71.46688 C69.7632,72.17344 69.18976,72.74688 68.4832,72.74688 L64.6432,72.74688 C63.936,72.74688 63.3632,72.17344 63.3632,71.46688 C63.3632,70.75968 63.936,70.18688 64.6432,70.18688 L68.4832,70.18688 C69.18976,70.18688 69.7632,70.75968 69.7632,71.46688 Z M62.0832,71.46688 C62.0832,72.17344 61.50976,72.74688 60.8032,72.74688 L10.2432,72.74688 C9.536,72.74688 8.9632,72.17344 8.9632,71.46688 C8.9632,70.75968 9.536,70.18688 10.2432,70.18688 L60.8032,70.18688 C61.50976,70.18688 62.0832,70.75968 62.0832,71.46688 Z M72.53056,65.70688 L41.20192,65.70688 C42.15808,64.51456 42.96512,63.22048 43.61472,61.86688 L76.72576,61.86688 C76.18752,63.97184 74.40192,65.70688 72.53056,65.70688 Z M10.2432,48.42688 L42.8832,48.42688 L42.8832,54.13568 C42.8832,55.97824 42.50688,57.84512 41.80928,59.6256 C41.68,59.73696 41.56416,59.8656 41.48608,60.02432 C40.75648,61.51744 39.72032,63.03104 38.40768,64.94784 C38.34432,65.04064 38.27456,65.14368 38.20992,65.2384 C38.05824,65.39648 37.90656,65.55392 37.74912,65.70688 L15.02528,65.70688 C11.98016,62.84416 10.2432,58.65536 10.2432,54.13568 L10.2432,48.42688 Z M6.20032,55.52896 C4.43392,55.52896 2.99776,54.09216 2.99776,52.3264 L2.99776,51.3312 C2.99776,49.5648 4.43392,48.12864 6.20032,48.12864 L7.6832,48.12864 L7.6832,54.13568 C7.6832,54.60352 7.70496,55.06752 7.7376,55.52896 L6.20032,55.52896 Z M70.23872,56.55744 C71.01952,56.55744 71.6544,57.19232 71.6544,57.97312 C71.6544,58.59328 71.2512,59.11552 70.69568,59.30688 L44.62528,59.30688 C44.90816,58.40128 45.12064,57.48224 45.25696,56.55744 L70.23872,56.55744 Z M78.1696,59.30688 L73.77792,59.30688 C73.93536,58.89152 74.02496,58.44288 74.02496,57.97312 C74.02496,55.88544 72.3264,54.18688 70.23872,54.18688 L45.44128,54.18688 C45.44128,54.1696 45.4432,54.15232 45.4432,54.13568 L45.4432,47.89312 C45.4432,46.54848 44.98368,45.86688 44.07744,45.86688 L8.91392,45.86688 C8.8576,45.86688 8.8032,45.87712 8.74816,45.8848 C8.58944,45.80608 8.41344,45.75744 8.22464,45.75744 L6.20032,45.75744 C3.12704,45.75744 0.6272,48.25792 0.6272,51.3312 L0.6272,52.3264 C0.6272,55.39904 3.12704,57.89952 6.20032,57.89952 L8.04608,57.89952 C8.60864,60.79744 9.81696,63.47456 11.57248,65.70688 L7.0432,65.70688 C6.336,65.70688 5.7632,66.27968 5.7632,66.98688 C5.7632,67.69344 6.336,68.26688 7.0432,68.26688 L38.256,68.26688 C38.31872,68.26688 38.37952,68.25856 38.44096,68.2496 C38.4832,68.25408 38.52352,68.26688 38.5664,68.26688 L72.53056,68.26688 C76.21632,68.26688 79.4496,64.6784 79.4496,60.58688 C79.4496,59.87968 78.8768,59.30688 78.1696,59.30688 Z M71.6544,41.04 C71.6544,40.2592 71.01952,39.62432 70.23872,39.62432 L44.12224,39.62432 C43.46752,39.62432 42.93696,39.09376 42.93696,38.43904 C42.93696,37.78432 43.46752,37.25376 44.12224,37.25376 L70.23872,37.25376 C72.3264,37.25376 74.02496,38.95232 74.02496,41.04 C74.02496,43.12768 72.3264,44.82624 70.23872,44.82624 L44.12224,44.82624 C43.46752,44.82624 42.93696,44.29568 42.93696,43.64096 C42.93696,42.98624 43.46752,42.45568 44.12224,42.45568 L70.23872,42.45568 C71.01952,42.45568 71.6544,41.8208 71.6544,41.04 Z M45.88544,26.28224 C46.08128,26.17728 46.2944,26.12416 46.51008,26.12416 C46.63872,26.12416 46.76864,26.14336 46.89536,26.18176 C47.23392,26.28416 47.51232,26.512 47.68,26.82432 L48.43264,28.22976 C47.55072,28.50816 46.71424,28.82432 45.9328,29.17632 L45.34336,28.07616 C44.9984,27.43232 45.2416,26.6272 45.88544,26.28224 Z M55.0432,26.47424 C55.0432,25.88736 55.88032,25.24352 56.6432,25.24352 C57.40544,25.24352 58.2432,25.88736 58.2432,26.47424 L58.2432,26.94016 C57.88992,26.92736 57.53664,26.91456 57.1808,26.91456 C56.46208,26.91456 55.74976,26.94848 55.0432,26.9984 L55.0432,26.47424 Z M65.99552,26.82432 C66.1632,26.51264 66.4416,26.28416 66.7808,26.18176 C67.11872,26.07872 67.47776,26.11456 67.79008,26.28224 C68.43392,26.6272 68.67776,27.43232 68.3328,28.07616 L67.87456,28.9312 C67.07776,28.60032 66.23104,28.30272 65.34144,28.04544 L65.99552,26.82432 Z M44.28928,33.06688 C44.77312,32.68992 45.34464,32.32512 45.98976,31.98016 C46.01792,31.96864 46.04736,31.96288 46.07488,31.9488 C47.30624,31.31648 48.75776,30.80192 50.38848,30.42048 C50.55488,30.38144 50.70336,30.30592 50.832,30.20736 C51.59296,30.02624 52.38784,29.87136 53.21728,29.7536 C53.38688,29.83424 53.57184,29.8816 53.7632,29.8816 C53.7792,29.8816 53.79584,29.88096 53.81312,29.88032 C54.52096,29.8528 55.008,29.82976 55.38944,29.81184 C56.01984,29.78304 56.34432,29.76704 56.92544,29.76704 C57.48992,29.76704 57.94112,29.78496 58.6816,29.8144 L59.4752,29.84512 C59.74144,29.85472 60.00064,29.78048 60.22016,29.63776 C61.13984,29.73696 62.02368,29.88096 62.86784,30.05824 C63.0048,30.16384 63.16416,30.24384 63.34528,30.2816 C65.03168,30.63168 66.53312,31.1104 67.80736,31.70496 C67.83168,31.71648 67.85728,31.72032 67.8816,31.72992 C68.73024,32.14592 69.4688,32.59712 70.07168,33.06688 L44.28928,33.06688 Z M42.97408,26.3808 C42.688,27.32608 42.78784,28.32512 43.25376,29.19552 L43.83872,30.28672 C42.21632,31.30176 40.99392,32.49152 40.368,33.79136 C40.17728,34.18816 40.20352,34.65472 40.43776,35.02784 C40.67136,35.40032 41.08096,35.62688 41.52128,35.62688 L72.83968,35.62688 C73.28,35.62688 73.6896,35.40032 73.92384,35.02784 C74.15808,34.65472 74.18432,34.18816 73.99296,33.79136 C73.30176,32.35584 71.88928,31.05216 70.00576,29.97312 L70.42176,29.19552 C70.88832,28.32512 70.98752,27.32608 70.70208,26.3808 C70.416,25.43616 69.7792,24.65856 68.90944,24.19264 C67.11296,23.22944 64.86848,23.90848 63.90656,25.70496 L62.95872,27.47392 C62.256,27.33696 61.53472,27.22752 60.8032,27.13984 L60.8032,26.47424 C60.8032,24.24 58.61056,22.68352 56.6432,22.68352 C54.6752,22.68352 52.4832,24.24 52.4832,26.47424 L52.4832,27.28768 C51.9072,27.37792 51.34208,27.48416 50.7872,27.60512 L49.76896,25.70496 C49.30304,24.8352 48.52608,24.1984 47.5808,23.91296 C46.63616,23.62624 45.63648,23.72672 44.76608,24.19264 C43.89632,24.65856 43.25952,25.43616 42.97408,26.3808 L42.97408,26.3808 Z" id="Fill-6" fill="#23375B"></path>
                        </g>
                    </g>
                </g>
            </g>
        </g>
    </g>
</svg>