
<svg width="80px" height="72px" viewBox="0 0 80 72" version="1.1" xmlns="http://www.w3.org/2000/svg" xmlns:xlink="http://www.w3.org/1999/xlink">
    <!-- Generator: Sketch 45.1 (43504) - http://www.bohemiancoding.com/sketch -->
    <desc>Created with Sketch.</desc>
    <defs></defs>
    <g id="Лендинг" stroke="none" stroke-width="1" fill="none" fill-rule="evenodd">
        <g id="лендинг---главный-экран-(1280х768)" transform="translate(-535.000000, -1803.000000)">
            <g id="третий-экран" transform="translate(0.000000, 1712.000000)">
                <g id="где-мы-размещаемся" transform="translate(1.000000, 0.000000)">
                    <g id="парки-отдыха" transform="translate(514.000000, 51.000000)">
                        <g id="Group-3" transform="translate(20.000000, 40.000000)">
                            <polygon id="Fill-7" fill="#BC242A" points="18.2418045 57.0640602 53.761203 57.0640602 53.761203 53.8135338 18.2418045 53.8135338"></polygon>
                            <path d="M41.7034586,46.9347368 C41.0081203,46.5407519 39.596391,45.6565414 38.0709774,44.2183459 C40.7548872,42.0162406 44.8721805,38.0619549 46.0535338,33.7341353 C46.1732331,33.2956391 46.1876692,32.8264662 46.0667669,32.3879699 C45.7642105,31.2890226 44.8162406,30.566015 43.7515789,30.5076692 C43.1873684,30.4745865 42.4451128,30.3777444 41.6986466,30.2237594 C44.2875188,27.446015 48.2508271,22.807218 51.3828571,17.441203 C54.5022556,22.7861654 58.4463158,27.4087218 61.0357895,30.1900752 C60.3380451,30.32 59.6469173,30.3993985 59.1067669,30.4240602 C58.6610526,30.4445113 58.2189474,30.552782 57.84,30.7879699 C56.8415038,31.4069173 56.4186466,32.5654135 56.7025564,33.6210526 C57.8724812,37.9657143 62.0132331,41.9566917 64.7019549,44.1738346 C63.1711278,45.6222556 61.752782,46.5166917 61.0544361,46.9160902 L60.9425564,46.9618045 C54.8150376,49.4730827 47.9470677,49.4796992 41.8153383,46.9804511 L41.7034586,46.9347368" id="Fill-8" fill="#DDE4F0"></path>
                            <path d="M29.8502256,8.19909774 L21.7972932,10.6039098 C20.4547368,11.0051128 19.041203,10.2418045 18.6406015,8.89924812 C18.2393985,7.55669173 19.0027068,6.14315789 20.3452632,5.74195489 L28.3981955,3.33714286 C29.7407519,2.93593985 31.1542857,3.69924812 31.5554887,5.04180451 C31.9560902,6.3843609 31.192782,7.79789474 29.8502256,8.19909774" id="Fill-9" fill="#DDE4F0"></path>
                            <path d="M79.7130827,15.4736842 C79.6595489,14.8613534 79.121203,14.4180451 78.5064662,14.4619549 C77.8935338,14.5160902 77.4406015,15.0568421 77.4941353,15.6697744 C77.5344361,16.1311278 77.6156391,17.4736842 77.5049624,18.1371429 C77.4039098,18.7434586 77.8135338,19.3178947 78.4204511,19.4189474 C78.4830075,19.4291729 78.5443609,19.4345865 78.6051128,19.4345865 C79.1398496,19.4345865 79.6114286,19.0484211 79.7022556,18.5034586 C79.8790977,17.4430075 79.7311278,15.6721805 79.7130827,15.4736842 Z M58.2676692,3.24451128 C58.326015,3.22285714 64.155188,1.14526316 69.4893233,3.48631579 C74.0258647,5.47669173 76.2003008,8.07699248 76.7603008,12.1810526 C76.8366917,12.7392481 77.3142857,13.1440602 77.8622556,13.1440602 C77.912782,13.1440602 77.9633083,13.1410526 78.0144361,13.1338346 C78.6237594,13.0508271 79.0508271,12.4896241 78.9678195,11.8796992 C78.2983459,6.97503759 75.6517293,3.75699248 70.3849624,1.44601504 C64.2105263,-1.26315789 57.7696241,1.05383459 57.4989474,1.15368421 C56.9221053,1.36601504 56.6279699,2.00541353 56.8390977,2.58225564 C57.0508271,3.15909774 57.6908271,3.45443609 58.2676692,3.24451128 Z M30.0679699,10.3633083 C29.6439098,10.8084211 29.6607519,11.5133835 30.1058647,11.9380451 L32.0944361,13.833985 C32.3103759,14.0396992 32.5870677,14.1419549 32.8631579,14.1419549 C33.1572932,14.1419549 33.4508271,14.0264662 33.6697744,13.7966917 C34.0938346,13.3515789 34.0769925,12.646015 33.6318797,12.2219549 L31.6433083,10.3254135 C31.1981955,9.90135338 30.4926316,9.91819549 30.0679699,10.3633083 Z M22.5473684,17.9458647 C22.5930827,17.9518797 22.6381955,17.9542857 22.6827068,17.9542857 C23.2378947,17.9542857 23.7190977,17.5398496 23.7870677,16.9744361 L24.1046617,14.3578947 C24.1786466,13.7473684 23.7437594,13.1921805 23.1326316,13.1181955 C22.5245113,13.042406 21.9669173,13.4790977 21.8929323,14.0902256 L21.5759398,16.7061654 C21.5019549,17.3166917 21.9368421,17.8718797 22.5473684,17.9458647 Z M28.158797,12.4691729 C27.9332331,11.8965414 27.2878195,11.6150376 26.7145865,11.838797 C26.1419549,12.0637594 25.8598496,12.7097744 26.0842105,13.282406 L27.1416541,15.9783459 C27.3142857,16.4174436 27.7341353,16.6863158 28.1792481,16.6863158 C28.3145865,16.6863158 28.4517293,16.6610526 28.5852632,16.6087218 C29.1584962,16.3843609 29.4406015,15.7377444 29.2156391,15.1651128 L28.158797,12.4691729 Z M65.1657143,68.9726316 L63.361203,68.9726316 C62.6965414,68.9726316 62.1581955,69.5109774 62.1581955,70.1756391 C62.1581955,70.8396992 62.6965414,71.3786466 63.361203,71.3786466 L65.1657143,71.3786466 C65.8297744,71.3786466 66.3687218,70.8396992 66.3687218,70.1756391 C66.3687218,69.5109774 65.8297744,68.9726316 65.1657143,68.9726316 Z M59.7521805,68.9726316 L5.01533835,68.9726316 C4.35067669,68.9726316 3.81233083,69.5109774 3.81233083,70.1756391 C3.81233083,70.8396992 4.35067669,71.3786466 5.01533835,71.3786466 L59.7521805,71.3786466 C60.4162406,71.3786466 60.955188,70.8396992 60.955188,70.1756391 C60.955188,69.5109774 60.4162406,68.9726316 59.7521805,68.9726316 Z M23.4520301,62.957594 L25.2938346,62.957594 L25.2938346,58.7470677 L23.4520301,58.7470677 L23.4520301,62.957594 Z M27.5218045,62.957594 L44.4806015,62.957594 L44.4806015,58.7470677 L27.5218045,58.7470677 L27.5218045,62.957594 Z M46.7085714,62.957594 L48.5509774,62.957594 L48.5509774,58.7470677 L46.7085714,58.7470677 L46.7085714,62.957594 Z M5.8243609,62.7157895 L8.88180451,62.7157895 L8.88180451,51.4616541 C8.88180451,51.037594 8.70857143,50.6544361 8.42947368,50.3771429 C8.21533835,50.7079699 7.84481203,50.9275188 7.42135338,50.9275188 C6.96661654,50.9275188 6.5756391,50.6718797 6.37112782,50.2995489 C6.03969925,50.5804511 5.8243609,50.9942857 5.8243609,51.4616541 L5.8243609,62.7157895 Z M28.7169925,4.40421053 L28.5100752,4.46616541 C28.3278195,4.89864662 27.9001504,5.20300752 27.4009023,5.20300752 C26.8854135,5.20300752 26.3825564,5.22165414 25.8863158,5.24992481 L20.6640602,6.80962406 C19.9121805,7.03398496 19.4833083,7.82857143 19.7076692,8.58045113 C19.8165414,8.9443609 20.0607519,9.24511278 20.395188,9.42556391 C20.7290226,9.60541353 21.113985,9.64511278 21.4784962,9.53684211 L29.5314286,7.13142857 C29.8959398,7.02315789 30.1954887,6.77894737 30.3759398,6.44451128 C30.5569925,6.11007519 30.5966917,5.72451128 30.4878195,5.3606015 C30.3037594,4.74406015 29.7359398,4.34466165 29.123609,4.34466165 C28.9888722,4.34466165 28.8523308,4.36390977 28.7169925,4.40421053 Z M74.7897744,64.1606015 C74.7897744,64.8246617 74.2508271,65.363609 73.5867669,65.363609 L49.7377444,65.363609 C49.7130827,65.3654135 49.6896241,65.3708271 49.6649624,65.3708271 L45.5945865,65.3708271 C45.5699248,65.3708271 45.5464662,65.3654135 45.5218045,65.363609 L26.4806015,65.363609 C26.4565414,65.3654135 26.4330827,65.3708271 26.4078195,65.3708271 L22.3380451,65.3708271 C22.312782,65.3708271 22.2893233,65.3654135 22.2652632,65.363609 L1.40631579,65.363609 C0.741654135,65.363609 0.203308271,64.8246617 0.203308271,64.1606015 C0.203308271,63.4959398 0.741654135,62.957594 1.40631579,62.957594 L3.59639098,62.957594 L3.59639098,51.4616541 C3.59639098,49.7852632 4.70015038,48.3627068 6.21834586,47.8803008 L6.21834586,24.398797 C6.21533835,24.0144361 6.21533835,14.6905263 12.4932331,8.36390977 C15.9278195,4.90225564 20.5479699,3.04 26.2393985,2.81924812 L28.0793985,2.26947368 C29.0135338,1.99037594 30.0006015,2.09142857 30.8589474,2.55518797 C31.7172932,3.01894737 32.3434586,3.78887218 32.6225564,4.72300752 C32.9016541,5.65774436 32.8,6.64481203 32.3368421,7.50315789 C31.8730827,8.36090226 31.1037594,8.98706767 30.1690226,9.26616541 L22.1160902,11.6715789 C21.7702256,11.7750376 21.4177444,11.8261654 21.0664662,11.8261654 C20.4685714,11.8261654 19.8772932,11.677594 19.3365414,11.3858647 C18.4781955,10.9221053 17.8520301,10.1521805 17.5729323,9.21804511 C17.4093233,8.66947368 17.3804511,8.10285714 17.4748872,7.55488722 C16.2760902,8.23819549 15.1873684,9.06706767 14.2147368,10.0451128 C8.64240602,15.6469173 8.6237594,24.3043609 8.6243609,24.3909774 L8.6243609,47.9302256 C10.0709774,48.4529323 11.1097744,49.836391 11.1097744,51.4616541 L11.1097744,62.957594 L21.2240602,62.957594 L21.2240602,58.7470677 L18.2484211,58.7470677 C17.5837594,58.7470677 17.0454135,58.2081203 17.0454135,57.5440602 C17.0454135,56.8793985 17.5837594,56.3410526 18.2484211,56.3410526 L53.7371429,56.3410526 C54.401203,56.3410526 54.9401504,56.8793985 54.9401504,57.5440602 C54.9401504,58.2081203 54.401203,58.7470677 53.7371429,58.7470677 L50.7789474,58.7470677 L50.7789474,62.957594 L73.5867669,62.957594 C74.2508271,62.957594 74.7897744,63.4959398 74.7897744,64.1606015 Z M18.2484211,54.5365414 L53.7371429,54.5365414 C54.401203,54.5365414 54.9401504,53.997594 54.9401504,53.3335338 C54.9401504,52.6688722 54.401203,52.1305263 53.7371429,52.1305263 L18.2484211,52.1305263 C17.5837594,52.1305263 17.0454135,52.6688722 17.0454135,53.3335338 C17.0454135,53.997594 17.5837594,54.5365414 18.2484211,54.5365414 Z M20.6544361,32.882406 C20.6544361,33.5464662 21.192782,34.0854135 21.8574436,34.0854135 L24.8649624,34.0854135 C25.5290226,34.0854135 26.0679699,33.5464662 26.0679699,32.882406 C26.0679699,32.2177444 25.5290226,31.6793985 24.8649624,31.6793985 L21.8574436,31.6793985 C21.192782,31.6793985 20.6544361,32.2177444 20.6544361,32.882406 Z M15.842406,31.6793985 L14.0378947,31.6793985 C13.3732331,31.6793985 12.8348872,32.2177444 12.8348872,32.882406 C12.8348872,33.5464662 13.3732331,34.0854135 14.0378947,34.0854135 L15.842406,34.0854135 C16.5064662,34.0854135 17.0454135,33.5464662 17.0454135,32.882406 C17.0454135,32.2177444 16.5064662,31.6793985 15.842406,31.6793985 Z M18.2484211,38.2959398 C18.2484211,38.96 18.7867669,39.4989474 19.4514286,39.4989474 C20.1154887,39.4989474 20.6544361,38.96 20.6544361,38.2959398 L20.6544361,35.8899248 C20.6544361,35.2252632 20.1154887,34.6869173 19.4514286,34.6869173 C18.7867669,34.6869173 18.2484211,35.2252632 18.2484211,35.8899248 L18.2484211,38.2959398 Z M19.4514286,26.8673684 C18.7867669,26.8673684 18.2484211,27.4057143 18.2484211,28.0703759 L18.2484211,30.476391 C18.2484211,31.1404511 18.7867669,31.6793985 19.4514286,31.6793985 C20.1154887,31.6793985 20.6544361,31.1404511 20.6544361,30.476391 L20.6544361,28.0703759 C20.6544361,27.4057143 20.1154887,26.8673684 19.4514286,26.8673684 Z M37.1362406,36.5720301 C37.5536842,36.1209023 37.5266165,35.4159398 37.0748872,34.9984962 C36.6237594,34.5804511 35.9181955,34.6075188 35.5007519,35.0592481 C35.4628571,35.1001504 31.6661654,39.1717293 26.6153383,41.7473684 C26.3506767,41.8827068 26.1509774,42.1178947 26.0601504,42.401203 C25.9699248,42.6839098 25.996391,42.9912782 26.1335338,43.2547368 C26.1882707,43.3593985 27.4851128,45.8297744 29.1945865,47.76 C29.4147368,48.0084211 29.7209023,48.1353383 30.0288722,48.1353383 C30.2911278,48.1353383 30.555188,48.0427068 30.7669173,47.8550376 C31.2276692,47.447218 31.2703759,46.7434586 30.8625564,46.2827068 C29.9530827,45.2565414 29.1536842,44.0192481 28.6532331,43.1825564 C33.5206015,40.4493233 36.9816541,36.7392481 37.1362406,36.5720301 Z M32.3590977,26.8884211 C31.9242105,27.3233083 31.9242105,28.0288722 32.3590977,28.4637594 C32.5768421,28.6809023 32.8619549,28.7897744 33.1470677,28.7897744 C33.4321805,28.7897744 33.7172932,28.6809023 33.9350376,28.4637594 C34.1353383,28.2628571 34.8637594,27.6595489 35.275188,27.3263158 C35.7533835,26.9389474 35.8273684,26.237594 35.44,25.7593985 C35.0520301,25.281203 34.3512782,25.2078195 33.8736842,25.5945865 C33.6806015,25.7503759 32.7007519,26.5467669 32.3590977,26.8884211 Z M36.3181955,25.7239098 C36.6033083,25.7239098 36.8884211,25.6150376 37.1061654,25.3978947 C42.4511278,20.0529323 46.238797,12.8499248 46.397594,12.5455639 C46.6821053,12.0006015 46.4703759,11.3275188 45.9254135,11.0430075 C45.3810526,10.7596992 44.7079699,10.9696241 44.4228571,11.5145865 C44.3849624,11.5861654 40.6285714,18.724812 35.5308271,23.8225564 C35.0959398,24.2574436 35.0959398,24.9630075 35.5308271,25.3978947 C35.7485714,25.6150376 36.0330827,25.7239098 36.3181955,25.7239098 Z M36.4757895,30.1076692 C36.2129323,30.3386466 36.0637594,30.6736842 36.0673684,31.0237594 C36.0709774,31.3744361 36.2273684,31.7052632 36.4950376,31.9314286 C37.9819549,33.1831579 40.3735338,33.753985 41.9603008,34.006015 C39.8514286,38.5491729 33.6962406,42.8264662 33.6282707,42.8733835 C33.3521805,43.0634586 33.1675188,43.3606015 33.1193985,43.6926316 C33.0718797,44.0246617 33.1645113,44.3615038 33.3756391,44.6225564 C36.6827068,48.7013534 40.4084211,50.4757895 40.5654135,50.5491729 C40.7302256,50.6267669 40.9040602,50.6634586 41.0748872,50.6634586 C41.527218,50.6634586 41.9603008,50.407218 42.164812,49.9705263 C42.4469173,49.3690226 42.1876692,48.6526316 41.5861654,48.3705263 C41.5554887,48.3566917 38.7957895,47.041203 36.0697744,44.0643609 C38.3524812,42.315188 43.5284211,37.9314286 44.7747368,33.3034586 C44.8679699,32.9557895 44.8006015,32.5846617 44.5912782,32.2917293 C44.3825564,31.998797 44.0523308,31.8147368 43.6938346,31.7906767 C42.8517293,31.7329323 40.801203,31.4550376 39.2619549,30.8 C41.7630075,28.3849624 47.5813534,22.2989474 51.3828571,14.6057143 C55.1831579,22.2965414 60.9984962,28.3807519 63.5007519,30.797594 C61.9645113,31.444812 59.92,31.7094737 59.0796992,31.7606015 C58.7193985,31.7828571 58.3873684,31.9657143 58.1762406,32.2592481 C57.9657143,32.552782 57.8971429,32.9257143 57.9909774,33.2745865 C59.2372932,37.9031579 64.4150376,42.2959398 66.6965414,44.0487218 C63.9957895,46.9954887 61.2306767,48.3386466 61.1759398,48.3651128 C60.5756391,48.6484211 60.3181955,49.3642105 60.6015038,49.9651128 C60.8842105,50.566015 61.6006015,50.8234586 62.2021053,50.5413534 C62.3584962,50.4673684 66.0830075,48.6857143 69.3900752,44.6081203 C69.601203,44.3470677 69.6938346,44.0102256 69.6463158,43.678797 C69.5981955,43.3467669 69.4141353,43.0496241 69.1380451,42.8595489 C69.0700752,42.8126316 62.9221053,38.5359398 60.8084211,33.9855639 C62.3969925,33.7419549 64.7843609,33.1825564 66.2700752,31.9314286 C66.5383459,31.7058647 66.6947368,31.3744361 66.6983459,31.0237594 C66.7019549,30.6736842 66.552782,30.3386466 66.2899248,30.1076692 C66.1966917,30.0252632 56.9251128,21.7978947 52.5449624,11.363609 C52.3572932,10.9172932 51.92,10.6267669 51.4357895,10.6267669 L51.3299248,10.6267669 C50.8451128,10.6267669 50.4084211,10.9172932 50.2207519,11.363609 C45.8406015,21.7978947 36.5690226,30.0252632 36.4757895,30.1076692 Z M73.5795489,28.1275188 C76.316391,31.042406 77.8153383,34.7753383 77.8153383,38.7230075 C77.8153383,45.8454135 72.9852632,51.9699248 65.9482707,53.9410526 L66.7061654,59.9915789 C66.7831579,60.6015038 66.3500752,61.1584962 65.7395489,61.2348872 C65.6926316,61.2409023 65.6457143,61.2439098 65.6,61.2439098 C65.0466165,61.2439098 64.5666165,60.8318797 64.4962406,60.2682707 L63.6150376,53.2378947 C63.5434586,52.6658647 63.92,52.1341353 64.4830075,52.0114286 C71.0207519,50.5828571 75.5873684,45.118797 75.5873684,38.7230075 C75.5873684,35.1218045 74.1245113,31.7245113 71.4676692,29.1572932 C71.117594,28.8198496 71.0273684,28.2935338 71.2451128,27.8586466 C72.2875188,25.7720301 72.8384962,23.3870677 72.8384962,20.9630075 C72.8384962,13.4454135 67.6475188,7.32992481 61.2667669,7.32992481 C59.7443609,7.32992481 58.2652632,7.67338346 56.8697744,8.35067669 C56.3157895,8.61894737 55.6505263,8.38796992 55.3816541,7.83458647 C55.112782,7.28120301 55.3437594,6.61473684 55.8971429,6.34646617 C57.5981955,5.5206015 59.4045113,5.10195489 61.2667669,5.10195489 C68.8757895,5.10195489 75.0664662,12.2171429 75.0664662,20.9630075 C75.0664662,23.4550376 74.553985,25.9145865 73.5795489,28.1275188 L73.5795489,28.1275188 Z" id="Fill-10" fill="#23375B"></path>
                        </g>
                    </g>
                </g>
            </g>
        </g>
    </g>
</svg>