
<svg width="80px" height="71px" viewBox="0 0 80 71" version="1.1" xmlns="http://www.w3.org/2000/svg" xmlns:xlink="http://www.w3.org/1999/xlink">
    <!-- Generator: Sketch 45.1 (43504) - http://www.bohemiancoding.com/sketch -->
    <desc>Created with Sketch.</desc>
    <defs></defs>
    <g id="Лендинг" stroke="none" stroke-width="1" fill="none" fill-rule="evenodd">
        <g id="лендинг---главный-экран-(1280х768)" transform="translate(-666.000000, -1804.000000)">
            <g id="третий-экран" transform="translate(0.000000, 1712.000000)">
                <g id="где-мы-размещаемся" transform="translate(1.000000, 0.000000)">
                    <g id="соц.объекты" transform="translate(645.000000, 51.000000)">
                        <g id="Group-5" transform="translate(20.000000, 41.000000)">
                            <g id="Group-14">
                                <polyline id="Fill-11" fill="#DDE4F0" points="53.8430303 16.1618182 40.2018182 8.66121212 26.5606061 16.1618182 53.8430303 16.1618182"></polyline>
                                <path d="M31.2806061,14.949697 L40.2018182,10.0442424 L49.1224242,14.949697 L31.2806061,14.949697 Z M40.7854545,7.59878788 C40.4218182,7.39878788 39.9812121,7.39878788 39.6175758,7.59878788 L25.9763636,15.0993939 C25.4915152,15.3660606 25.2484848,15.9272727 25.3860606,16.4630303 C25.5236364,16.9993939 26.0066667,17.3739394 26.56,17.3739394 L53.8430303,17.3739394 C54.3963636,17.3739394 54.8793939,16.9993939 55.0169697,16.4630303 C55.1545455,15.9272727 54.9121212,15.3660606 54.4266667,15.0993939 L40.7854545,7.59878788 Z M11.9357576,17.0666667 C11.6363636,16.5236364 11.8345455,15.8412121 12.3781818,15.5418182 L39.6612121,0.541212121 C39.9975758,0.356363636 40.4054545,0.356363636 40.7424242,0.541212121 L68.0248485,15.5418182 C68.5684848,15.8412121 68.7666667,16.5236364 68.4678788,17.0666667 C68.2636364,17.4381818 67.8793939,17.6484848 67.4836364,17.6484848 C67.3006061,17.6484848 67.1151515,17.6036364 66.9436364,17.509697 L40.2018182,2.80545455 L13.4593939,17.509697 C12.9175758,17.8072727 12.2339394,17.609697 11.9357576,17.0666667 Z M79.3969697,68.8890909 C79.3969697,69.5581818 78.8539394,70.1012121 78.1848485,70.1012121 L1.21515152,70.1012121 C0.545454545,70.1012121 0.00303030303,69.5581818 0.00303030303,68.8890909 C0.00303030303,68.2193939 0.545454545,67.6769697 1.21515152,67.6769697 L78.1848485,67.6769697 C78.8539394,67.6769697 79.3969697,68.2193939 79.3969697,68.8890909 Z M7.27575758,63.4345455 L72.730303,63.4345455 C73.3993939,63.4345455 73.9424242,63.9769697 73.9424242,64.6466667 C73.9424242,65.3157576 73.3993939,65.8587879 72.730303,65.8587879 L7.27575758,65.8587879 C6.60606061,65.8587879 6.06363636,65.3157576 6.06363636,64.6466667 C6.06363636,63.9769697 6.60606061,63.4345455 7.27575758,63.4345455 Z M3.63939394,20.4042424 C3.63939394,19.7345455 4.18181818,19.1921212 4.85151515,19.1921212 L74.5484848,19.1921212 C75.2175758,19.1921212 75.7606061,19.7345455 75.7606061,20.4042424 C75.7606061,21.0733333 75.2175758,21.6163636 74.5484848,21.6163636 L4.85151515,21.6163636 C4.18181818,21.6163636 3.63939394,21.0733333 3.63939394,20.4042424 Z M72.730303,24.6466667 C72.730303,25.3157576 72.1872727,25.8587879 71.5181818,25.8587879 L7.88181818,25.8587879 C7.21212121,25.8587879 6.66969697,25.3157576 6.66969697,24.6466667 C6.66969697,23.9769697 7.21212121,23.4345455 7.88181818,23.4345455 L71.5181818,23.4345455 C72.1872727,23.4345455 72.730303,23.9769697 72.730303,24.6466667 Z M66.0636364,52.5254545 C65.3939394,52.5254545 64.8515152,51.9824242 64.8515152,51.3133333 L64.8515152,37.98 C64.8515152,37.310303 65.3939394,36.7678788 66.0636364,36.7678788 C66.7327273,36.7678788 67.2757576,37.310303 67.2757576,37.98 L67.2757576,51.3133333 C67.2757576,51.9824242 66.7327273,52.5254545 66.0636364,52.5254545 Z M59.3969697,52.5254545 C58.7272727,52.5254545 58.1848485,51.9824242 58.1848485,51.3133333 L58.1848485,37.98 C58.1848485,37.310303 58.7272727,36.7678788 59.3969697,36.7678788 C60.0660606,36.7678788 60.6090909,37.310303 60.6090909,37.98 L60.6090909,51.3133333 C60.6090909,51.9824242 60.0660606,52.5254545 59.3969697,52.5254545 Z M62.4272727,57.98 C61.7575758,57.98 61.2151515,57.4369697 61.2151515,56.7678788 L61.2151515,31.9193939 C61.2151515,31.249697 61.7575758,30.7072727 62.4272727,30.7072727 C63.0963636,30.7072727 63.6393939,31.249697 63.6393939,31.9193939 L63.6393939,56.7678788 C63.6393939,57.4369697 63.0963636,57.98 62.4272727,57.98 Z M55.6381818,56.2660606 C55.7339394,56.2624242 55.8315152,56.269697 55.9254545,56.2909091 C55.9981818,56.3060606 56.2381818,56.369697 56.2678788,56.510303 C56.2721212,56.529697 56.2727273,56.5521212 56.2690909,56.5769697 C56.0945455,56.4133333 55.8745455,56.3048485 55.6381818,56.2660606 Z M69.3975758,56.5551515 C69.3806061,56.5042424 69.3793939,56.4557576 69.3878788,56.4157576 C69.4175758,56.2751515 69.5872727,56.210303 69.7236364,56.1806061 C69.790303,56.1660606 69.8587879,56.1587879 69.9278788,56.1587879 C70.0490909,56.1587879 70.1727273,56.1806061 70.2945455,56.2230303 C69.9593939,56.2006061 69.6369697,56.3284848 69.3975758,56.5551515 Z M56.4448485,53.9230303 C55.3854545,53.6878788 54.2739394,53.9551515 53.3945455,54.6484848 C52.4127273,55.4218182 51.8345455,56.6472727 51.8072727,58.0090909 C51.78,59.3830303 52.2139394,60.5672727 53.0636364,61.4339394 C53.9575758,62.3460606 55.2509091,62.8284848 56.8018182,62.8284848 L68.8387879,62.8284848 C70.3915152,62.8284848 71.6854545,62.3454545 72.5806061,61.4321212 C73.430303,60.5660606 73.8654545,59.3818182 73.8381818,58.0090909 C73.810303,56.6072727 73.2109091,55.3430303 72.1933333,54.5412121 C71.3206061,53.8527273 70.2309091,53.5878788 69.2042424,53.8127273 C68.0587879,54.0642424 67.2406061,54.850303 67.0157576,55.9157576 C66.7963636,56.9569697 67.2230303,58.0460606 68.1024242,58.690303 C68.9115152,59.2818182 69.6054545,59.2515152 70.0454545,59.1206061 C70.9509091,58.8515152 71.3042424,58.0266667 71.3660606,57.8636364 C71.3763636,57.8363636 71.3860606,57.8084848 71.3939394,57.7812121 C71.4054545,57.8709091 71.4121212,57.9636364 71.4145455,58.0575758 C71.4242424,58.549697 71.3339394,59.2412121 70.849697,59.7351515 C70.4206061,60.1727273 69.7254545,60.4042424 68.8387879,60.4042424 L56.8018182,60.4042424 C55.9169697,60.4042424 55.2230303,60.1733333 54.7945455,59.7363636 C54.3109091,59.2430303 54.2212121,58.5509091 54.2309091,58.0575758 C54.2333333,57.9436364 54.2424242,57.8339394 54.2581818,57.7278788 C54.2690909,57.7739394 54.2824242,57.8206061 54.2981818,57.8660606 C54.3575758,58.0339394 54.6993939,58.8842424 55.6109091,59.1654545 C56.0509091,59.3012121 56.7442424,59.3387879 57.5551515,58.7448485 C58.429697,58.1048485 58.8551515,57.0315152 58.64,56.009697 C58.4169697,54.9551515 57.5963636,54.1751515 56.4448485,53.9230303 Z M69.7193939,34.3848485 C69.6466667,34.369697 69.4072727,34.3060606 69.3769697,34.1654545 C69.3727273,34.1460606 69.3721212,34.1236364 69.3757576,34.0993939 C69.5460606,34.2575758 69.7587879,34.3648485 69.9872727,34.4060606 C69.8945455,34.4109091 69.8060606,34.4036364 69.7193939,34.3848485 Z M56.2509091,34.1060606 C56.2642424,34.150303 56.2648485,34.1915152 56.2575758,34.2260606 C56.2284848,34.3654545 56.0345455,34.4278788 55.9212121,34.4533333 C55.7757576,34.4848485 55.6242424,34.4806061 55.4721212,34.4418182 C55.7630303,34.4272727 56.0406061,34.3072727 56.2509091,34.1060606 Z M72.5466667,29.0781818 C71.6478788,28.1618182 70.3672727,27.6769697 68.8430303,27.6769697 L56.8060606,27.6769697 C55.2806061,27.6769697 53.9987879,28.1624242 53.0981818,29.0806061 C52.2381818,29.9581818 51.78,31.2012121 51.8072727,32.5818182 C51.8351515,33.9987879 52.4430303,35.2787879 53.4751515,36.0921212 C54.1436364,36.6187879 54.9369697,36.8981818 55.7278788,36.8981818 C55.9666667,36.8981818 56.2054545,36.8727273 56.4406061,36.8212121 C57.5872727,36.569697 58.4060606,35.7866667 58.629697,34.7266667 C58.8478788,33.6921212 58.4212121,32.6084848 57.5424242,31.9642424 C56.7339394,31.3733333 56.0406061,31.4048485 55.6012121,31.5369697 C54.6921212,31.8078788 54.3387879,32.6406061 54.2775758,32.8054545 C54.270303,32.8236364 54.2636364,32.8424242 54.2581818,32.8618182 C54.2424242,32.7551515 54.2333333,32.6448485 54.2309091,32.5333333 C54.2212121,32.0212121 54.3163636,31.3012121 54.829697,30.7775758 C55.2636364,30.3351515 55.9472727,30.1012121 56.8060606,30.1012121 L68.8430303,30.1012121 C69.7012121,30.1012121 70.3830303,30.3345455 70.8157576,30.7757576 C71.3290909,31.2987879 71.4242424,32.0206061 71.4145455,32.5333333 C71.4115152,32.6636364 71.3993939,32.7909091 71.3787879,32.9133333 C71.369697,32.8787879 71.3587879,32.8442424 71.3466667,32.809697 C71.2878788,32.6418182 70.9460606,31.7921212 70.0339394,31.510303 C69.5939394,31.3745455 68.9,31.3387879 68.090303,31.9309091 C67.2157576,32.5715152 66.789697,33.6448485 67.0054545,34.6660606 C67.2278788,35.7206061 68.0484848,36.5012121 69.2,36.7527273 C70.2339394,36.9806061 71.329697,36.7145455 72.2054545,36.0242424 C73.2151515,35.2284848 73.810303,33.9733333 73.8381818,32.5818182 C73.8654545,31.1993939 73.4066667,29.9563636 72.5466667,29.0781818 Z M43.6393939,52.5254545 C42.969697,52.5254545 42.4272727,51.9824242 42.4272727,51.3133333 L42.4272727,37.98 C42.4272727,37.310303 42.969697,36.7678788 43.6393939,36.7678788 C44.3084848,36.7678788 44.8515152,37.310303 44.8515152,37.98 L44.8515152,51.3133333 C44.8515152,51.9824242 44.3084848,52.5254545 43.6393939,52.5254545 Z M35.1545455,51.3133333 L35.1545455,37.98 C35.1545455,37.310303 35.6969697,36.7678788 36.3666667,36.7678788 C37.0357576,36.7678788 37.5787879,37.310303 37.5787879,37.98 L37.5787879,51.3133333 C37.5787879,51.9824242 37.0357576,52.5254545 36.3666667,52.5254545 C35.6969697,52.5254545 35.1545455,51.9824242 35.1545455,51.3133333 Z M40.0030303,57.98 C39.3333333,57.98 38.7909091,57.4369697 38.7909091,56.7678788 L38.7909091,31.9193939 C38.7909091,31.249697 39.3333333,30.7072727 40.0030303,30.7072727 C40.6721212,30.7072727 41.2151515,31.249697 41.2151515,31.9193939 L41.2151515,56.7678788 C41.2151515,57.4369697 40.6721212,57.98 40.0030303,57.98 Z M33.1369697,56.2660606 C33.2339394,56.2624242 33.330303,56.269697 33.4242424,56.2909091 C33.4969697,56.3060606 33.7369697,56.369697 33.7666667,56.510303 C33.7709091,56.529697 33.7715152,56.5521212 33.7678788,56.5769697 C33.5927273,56.4133333 33.3733333,56.3048485 33.1369697,56.2660606 Z M46.8963636,56.5551515 C46.8793939,56.5048485 46.8781818,56.4557576 46.8866667,56.4157576 C46.9163636,56.2751515 47.0860606,56.210303 47.2224242,56.1806061 C47.2890909,56.1660606 47.3575758,56.1587879 47.4266667,56.1587879 C47.5478788,56.1587879 47.6715152,56.1806061 47.7933333,56.2230303 C47.4587879,56.2006061 47.1351515,56.3284848 46.8963636,56.5551515 Z M30.8933333,54.6484848 C29.9115152,55.4218182 29.3333333,56.6472727 29.3060606,58.0090909 C29.2787879,59.3830303 29.7133333,60.5672727 30.5624242,61.4339394 C31.4569697,62.3460606 32.749697,62.8284848 34.3006061,62.8284848 L46.3375758,62.8284848 C47.890303,62.8284848 49.1842424,62.3454545 50.08,61.4321212 C50.9290909,60.5648485 51.3642424,59.3818182 51.3363636,58.0090909 C51.3084848,56.6072727 50.709697,55.3430303 49.6921212,54.5418182 C48.8187879,53.8533333 47.7290909,53.5866667 46.7030303,53.8127273 C45.5575758,54.0642424 44.7387879,54.850303 44.5145455,55.9157576 C44.2951515,56.9569697 44.7218182,58.0460606 45.6012121,58.690303 C46.410303,59.2818182 47.1042424,59.2515152 47.5442424,59.1206061 C48.449697,58.8515152 48.8036364,58.0266667 48.8648485,57.8636364 C48.8751515,57.8369697 48.8848485,57.8090909 48.8927273,57.7818182 C48.9042424,57.8715152 48.9109091,57.9636364 48.9127273,58.0575758 C48.9224242,58.549697 48.8327273,59.2412121 48.3490909,59.7345455 C47.9193939,60.1727273 47.2242424,60.4042424 46.3375758,60.4042424 L34.3006061,60.4042424 C33.4157576,60.4042424 32.7218182,60.1733333 32.2933333,59.7363636 C31.809697,59.2430303 31.72,58.5509091 31.729697,58.0575758 C31.7321212,57.9436364 31.7412121,57.8339394 31.7569697,57.7272727 C31.7672727,57.7739394 31.7806061,57.82 31.7969697,57.8660606 C31.8563636,58.0339394 32.1981818,58.8836364 33.109697,59.1654545 C33.5484848,59.3012121 34.2424242,59.3381818 35.0539394,58.7448485 C35.9284848,58.1042424 36.3545455,57.030303 36.1387879,56.009697 C35.9157576,54.9551515 35.0951515,54.1751515 33.9436364,53.9230303 C32.8848485,53.6878788 31.7733333,53.9551515 30.8933333,54.6484848 Z M47.2181818,34.3848485 C47.1454545,34.369697 46.9054545,34.3060606 46.8757576,34.1654545 C46.8721212,34.1460606 46.8709091,34.1236364 46.8745455,34.0993939 C47.0448485,34.2575758 47.2575758,34.3648485 47.4860606,34.4060606 C47.3957576,34.4109091 47.3048485,34.4036364 47.2181818,34.3848485 Z M33.749697,34.1060606 C33.7630303,34.150303 33.7636364,34.1915152 33.7563636,34.2260606 C33.7272727,34.3654545 33.5333333,34.4278788 33.42,34.4533333 C33.2745455,34.4848485 33.1224242,34.4806061 32.9709091,34.4418182 C33.2618182,34.4278788 33.5393939,34.3072727 33.749697,34.1060606 Z M50.0454545,29.0787879 C49.1466667,28.1618182 47.8660606,27.6769697 46.3418182,27.6769697 L34.3048485,27.6769697 C32.7793939,27.6769697 31.4975758,28.1624242 30.5975758,29.08 C29.7369697,29.9581818 29.2781818,31.2012121 29.3060606,32.5818182 C29.3339394,33.9987879 29.9418182,35.2787879 30.9739394,36.0921212 C31.6424242,36.6187879 32.4351515,36.8981818 33.2266667,36.8981818 C33.4654545,36.8975758 33.7042424,36.8727273 33.9393939,36.8212121 C35.0860606,36.569697 35.9042424,35.7866667 36.1284848,34.7266667 C36.3466667,33.6927273 35.92,32.6084848 35.0412121,31.9642424 C34.2327273,31.3733333 33.5393939,31.4048485 33.1,31.5369697 C32.1909091,31.8078788 31.8375758,32.6406061 31.7763636,32.8054545 C31.7690909,32.8242424 31.7624242,32.8430303 31.7563636,32.8624242 C31.7406061,32.7551515 31.7321212,32.6454545 31.729697,32.5333333 C31.7193939,32.0212121 31.8151515,31.3012121 32.3284848,30.7775758 C32.7624242,30.3351515 33.4454545,30.1012121 34.3048485,30.1012121 L46.3418182,30.1012121 C47.2,30.1012121 47.8818182,30.3345455 48.3145455,30.7757576 C48.8278788,31.2987879 48.9230303,32.0206061 48.9127273,32.5333333 C48.910303,32.6636364 48.8981818,32.790303 48.8769697,32.9133333 C48.8678788,32.8787879 48.8575758,32.8436364 48.8454545,32.809697 C48.7860606,32.6418182 48.4442424,31.7915152 47.5321212,31.510303 C47.0933333,31.3745455 46.3993939,31.3381818 45.5890909,31.9309091 C44.7145455,32.5709091 44.2884848,33.6448485 44.5036364,34.6654545 C44.7260606,35.72 45.5472727,36.5012121 46.6987879,36.7527273 C47.7327273,36.9806061 48.8284848,36.7151515 49.7042424,36.0236364 C50.7139394,35.2284848 51.3090909,33.9733333 51.3363636,32.5818182 C51.3642424,31.2 50.9054545,29.9563636 50.0454545,29.0787879 Z M20.6090909,52.5254545 C19.9393939,52.5254545 19.3969697,51.9824242 19.3969697,51.3133333 L19.3969697,37.98 C19.3969697,37.310303 19.9393939,36.7678788 20.6090909,36.7678788 C21.2781818,36.7678788 21.8212121,37.310303 21.8212121,37.98 L21.8212121,51.3133333 C21.8212121,51.9824242 21.2781818,52.5254545 20.6090909,52.5254545 Z M12.730303,51.3133333 L12.730303,37.98 C12.730303,37.310303 13.2727273,36.7678788 13.9424242,36.7678788 C14.6115152,36.7678788 15.1545455,37.310303 15.1545455,37.98 L15.1545455,51.3133333 C15.1545455,51.9824242 14.6115152,52.5254545 13.9424242,52.5254545 C13.2727273,52.5254545 12.730303,51.9824242 12.730303,51.3133333 Z M17.5787879,57.98 C16.9090909,57.98 16.3666667,57.4369697 16.3666667,56.7678788 L16.3666667,31.9193939 C16.3666667,31.249697 16.9090909,30.7072727 17.5787879,30.7072727 C18.2478788,30.7072727 18.7909091,31.249697 18.7909091,31.9193939 L18.7909091,56.7678788 C18.7909091,57.4369697 18.2478788,57.98 17.5787879,57.98 Z M10.6357576,56.2660606 C10.7345455,56.2624242 10.8290909,56.269697 10.9230303,56.2909091 C10.9957576,56.3060606 11.2357576,56.369697 11.2654545,56.510303 C11.2690909,56.529697 11.270303,56.5521212 11.2666667,56.5769697 C11.0915152,56.4133333 10.8715152,56.3048485 10.6357576,56.2660606 Z M24.389697,56.5387879 C24.3781818,56.4939394 24.3775758,56.4509091 24.3854545,56.4157576 C24.4145455,56.2751515 24.5842424,56.210303 24.7212121,56.1806061 C24.7878788,56.1660606 24.8557576,56.1587879 24.9254545,56.1587879 C25.0212121,56.1587879 25.1187879,56.1721212 25.2157576,56.1993939 C24.9054545,56.2018182 24.6090909,56.3230303 24.389697,56.5387879 Z M8.39212121,54.6484848 C7.41030303,55.4218182 6.83212121,56.6472727 6.80484848,58.0090909 C6.7769697,59.3830303 7.21151515,60.5672727 8.06060606,61.4333333 C8.95575758,62.3460606 10.2478788,62.8284848 11.7993939,62.8284848 L23.8363636,62.8284848 C25.3890909,62.8284848 26.6830303,62.3454545 27.5781818,61.4321212 C28.4278788,60.5660606 28.8624242,59.3818182 28.8351515,58.0090909 C28.8072727,56.6072727 28.2078788,55.3430303 27.1909091,54.5412121 C26.3175758,53.8527273 25.2284848,53.5878788 24.2018182,53.8127273 C23.0557576,54.0642424 22.2381818,54.850303 22.0133333,55.9157576 C21.7933333,56.9569697 22.22,58.0460606 23.1,58.690303 C23.909697,59.2818182 24.6030303,59.2515152 25.0430303,59.1206061 C25.9484848,58.8515152 26.3024242,58.0266667 26.3636364,57.8636364 C26.3739394,57.8369697 26.3830303,57.8090909 26.3921212,57.7818182 C26.4030303,57.8715152 26.409697,57.9636364 26.4115152,58.0575758 C26.4212121,58.549697 26.3315152,59.2412121 25.8472727,59.7351515 C25.4181818,60.1727273 24.7230303,60.4042424 23.8363636,60.4042424 L11.7993939,60.4042424 C10.9139394,60.4042424 10.22,60.1733333 9.79212121,59.7363636 C9.30848485,59.2430303 9.21878788,58.5509091 9.22848485,58.0575758 C9.23090909,57.9436364 9.24,57.8345455 9.25575758,57.7278788 C9.26606061,57.7745455 9.27939394,57.8206061 9.29575758,57.8660606 C9.35515152,58.0339394 9.6969697,58.8842424 10.6084848,59.1654545 C11.0484848,59.3012121 11.7412121,59.3387879 12.5527273,58.7448485 C13.4266667,58.1048485 13.8527273,57.030303 13.6375758,56.009697 C13.4145455,54.9551515 12.5939394,54.1751515 11.4424242,53.9230303 C10.3830303,53.6878788 9.27151515,53.9551515 8.39212121,54.6484848 Z M24.7169697,34.3848485 C24.6442424,34.369697 24.4042424,34.3060606 24.3745455,34.1654545 C24.3709091,34.1460606 24.369697,34.1236364 24.3733333,34.0993939 C24.5436364,34.2575758 24.7563636,34.3648485 24.9848485,34.4060606 C24.8933333,34.410303 24.8036364,34.4048485 24.7169697,34.3848485 Z M11.2533333,34.1236364 C11.2618182,34.1606061 11.2612121,34.1957576 11.2551515,34.2260606 C11.2254545,34.3654545 11.0321212,34.4278788 10.9187879,34.4533333 C10.7975758,34.4793939 10.6715152,34.4806061 10.5454545,34.4581818 C10.8121212,34.429697 11.0624242,34.3121212 11.2533333,34.1236364 Z M27.5442424,29.0781818 C26.6454545,28.1618182 25.3642424,27.6769697 23.8406061,27.6769697 L11.8036364,27.6769697 C10.2781818,27.6769697 8.99575758,28.1624242 8.09575758,29.0806061 C7.23575758,29.9581818 6.7769697,31.2012121 6.80484848,32.5818182 C6.83272727,33.9987879 7.44060606,35.2787879 8.47272727,36.0921212 C9.14121212,36.6187879 9.93393939,36.8981818 10.7254545,36.8981818 C10.9642424,36.8975758 11.2030303,36.8727273 11.4381818,36.8212121 C12.5848485,36.569697 13.4030303,35.7866667 13.6272727,34.7266667 C13.8454545,33.6927273 13.4187879,32.6084848 12.54,31.9642424 C11.7315152,31.3733333 11.0381818,31.4048485 10.5981818,31.5369697 C9.68969697,31.8078788 9.33636364,32.6406061 9.27454545,32.8054545 C9.26787879,32.8236364 9.26121212,32.8424242 9.25515152,32.8618182 C9.23939394,32.7551515 9.23090909,32.6448485 9.22848485,32.5333333 C9.21818182,32.0212121 9.31393939,31.3012121 9.82727273,30.7775758 C10.2606061,30.3351515 10.9442424,30.1012121 11.8036364,30.1012121 L23.8406061,30.1012121 C24.6981818,30.1012121 25.3806061,30.3345455 25.8127273,30.7757576 C26.3260606,31.2987879 26.4218182,32.0206061 26.4115152,32.5333333 C26.4090909,32.6630303 26.3969697,32.790303 26.3757576,32.9133333 C26.3672727,32.8787879 26.3563636,32.8436364 26.3442424,32.809697 C26.2848485,32.6418182 25.9430303,31.7915152 25.0309091,31.510303 C24.5927273,31.3745455 23.8987879,31.3381818 23.0878788,31.9309091 C22.2133333,32.5709091 21.7872727,33.6448485 22.0024242,34.6654545 C22.2254545,35.72 23.0460606,36.5012121 24.1975758,36.7527273 C25.2315152,36.9806061 26.3272727,36.7145455 27.2030303,36.0242424 C28.2127273,35.2284848 28.8072727,33.9733333 28.8351515,32.5818182 C28.8630303,31.1993939 28.4042424,29.9557576 27.5442424,29.0781818 L27.5442424,29.0781818 Z" id="Fill-13" fill="#23375B"></path>
                            </g>
                            <path d="M29.1387879,52.8090909 L29.1387879,52.8090909 C26.2909091,52.8090909 23.9818182,50.5 23.9818182,47.6521212 L23.9818182,43.5272727 C23.9818182,40.6793939 26.2909091,38.370303 29.1387879,38.370303 C31.9866667,38.370303 34.2951515,40.6793939 34.2951515,43.5272727 L34.2951515,47.6521212 C34.2951515,50.5 31.9866667,52.8090909 29.1387879,52.8090909" id="Fill-15" fill="#BC242A"></path>
                            <path d="M51.2648485,52.8090909 L51.2648485,52.8090909 C48.4169697,52.8090909 46.1084848,50.5 46.1084848,47.6521212 L46.1084848,43.5272727 C46.1084848,40.6793939 48.4169697,38.370303 51.2648485,38.370303 C54.1127273,38.370303 56.4212121,40.6793939 56.4212121,43.5272727 L56.4212121,47.6521212 C56.4212121,50.5 54.1127273,52.8090909 51.2648485,52.8090909" id="Fill-16" fill="#BC242A"></path>
                        </g>
                    </g>
                </g>
            </g>
        </g>
    </g>
</svg>