
<svg width="80px" height="84px" viewBox="0 0 80 84" version="1.1" xmlns="http://www.w3.org/2000/svg" xmlns:xlink="http://www.w3.org/1999/xlink">
    <!-- Generator: Sketch 45.1 (43504) - http://www.bohemiancoding.com/sketch -->
    <desc>Created with Sketch.</desc>
    <defs></defs>
    <g id="Лендинг" stroke="none" stroke-width="1" fill="none" fill-rule="evenodd">
        <g id="лендинг---главный-экран-(1280х768)" transform="translate(-797.000000, -1791.000000)">
            <g id="третий-экран" transform="translate(0.000000, 1712.000000)">
                <g id="где-мы-размещаемся" transform="translate(1.000000, 0.000000)">
                    <g id="общественный-траснпорт" transform="translate(776.000000, 51.000000)">
                        <g id="Group" transform="translate(20.000000, 28.000000)">
                            <path d="M19.229375,58.565 C16.495,58.565 14.27875,56.348125 14.27875,53.61375 L14.27875,37.813125 C14.27875,35.078125 16.495,32.861875 19.229375,32.861875 L32.989375,32.861875 C35.72375,32.861875 37.940625,35.078125 37.940625,37.813125 L37.940625,53.61375 C37.940625,56.348125 35.72375,58.565 32.989375,58.565 L19.229375,58.565 Z" id="Fill-41" fill="#DDE4F0"></path>
                            <path d="M15.3975,64.786875 C15.3975,65.935 16.328125,66.865 17.47625,66.865 C18.62375,66.865 19.554375,65.935 19.554375,64.786875 C19.554375,63.63875 18.62375,62.70875 17.47625,62.70875 C16.328125,62.70875 15.3975,63.63875 15.3975,64.786875" id="Fill-42" fill="#BC242A"></path>
                            <path d="M32.664375,64.786875 C32.664375,65.935 33.595,66.865 34.743125,66.865 C35.890625,66.865 36.82125,65.935 36.82125,64.786875 C36.82125,63.63875 35.890625,62.70875 34.743125,62.70875 C33.595,62.70875 32.664375,63.63875 32.664375,64.786875" id="Fill-43" fill="#BC242A"></path>
                            <path d="M55.63375,11.89375 C55.63375,13.895 57.25625,15.5175 59.2575,15.5175 C61.25875,15.5175 62.88125,13.895 62.88125,11.89375 C62.88125,9.8925 61.25875,8.27 59.2575,8.27 C57.25625,8.27 55.63375,9.8925 55.63375,11.89375" id="Fill-44" fill="#BC242A"></path>
                            <path d="M17.1325,76.698125 L15.54125,76.698125 C14.369375,76.698125 13.419375,75.7475 13.419375,74.575625 L13.419375,69.983125 L19.254375,69.983125 L19.254375,74.575625 C19.254375,75.7475 18.304375,76.698125 17.1325,76.698125" id="Fill-45" fill="#23375B"></path>
                            <path d="M36.678125,76.698125 L35.08625,76.698125 C33.914375,76.698125 32.964375,75.7475 32.964375,74.575625 L32.964375,69.983125 L38.8,69.983125 L38.8,74.575625 C38.8,75.7475 37.85,76.698125 36.678125,76.698125" id="Fill-46" fill="#23375B"></path>
                            <path d="M15.940625,82.291875 C15.940625,82.981875 15.380625,83.541875 14.690625,83.541875 L12.190625,83.541875 C11.5,83.541875 10.940625,82.981875 10.940625,82.291875 C10.940625,81.60125 11.5,81.041875 12.190625,81.041875 L14.690625,81.041875 C15.380625,81.041875 15.940625,81.60125 15.940625,82.291875 Z M25.315625,82.291875 C25.315625,82.981875 24.755625,83.541875 24.065625,83.541875 L21.565625,83.541875 C20.875,83.541875 20.315625,82.981875 20.315625,82.291875 C20.315625,81.60125 20.875,81.041875 21.565625,81.041875 L24.065625,81.041875 C24.755625,81.041875 25.315625,81.60125 25.315625,82.291875 Z M34.690625,82.291875 C34.690625,82.981875 34.130625,83.541875 33.440625,83.541875 L30.940625,83.541875 C30.25,83.541875 29.690625,82.981875 29.690625,82.291875 C29.690625,81.60125 30.25,81.041875 30.940625,81.041875 L33.440625,81.041875 C34.130625,81.041875 34.690625,81.60125 34.690625,82.291875 Z M70.940625,82.291875 C70.940625,82.981875 70.380625,83.541875 69.690625,83.541875 L68.440625,83.541875 C67.75,83.541875 67.190625,82.981875 67.190625,82.291875 C67.190625,81.60125 67.75,81.041875 68.440625,81.041875 L69.690625,81.041875 C70.380625,81.041875 70.940625,81.60125 70.940625,82.291875 Z M44.065625,82.291875 C44.065625,82.981875 43.505625,83.541875 42.815625,83.541875 L40.315625,83.541875 C39.625,83.541875 39.065625,82.981875 39.065625,82.291875 C39.065625,81.60125 39.625,81.041875 40.315625,81.041875 L42.815625,81.041875 C43.505625,81.041875 44.065625,81.60125 44.065625,82.291875 Z M62.815625,82.291875 C62.815625,82.981875 62.255625,83.541875 61.565625,83.541875 L59.065625,83.541875 C58.375,83.541875 57.815625,82.981875 57.815625,82.291875 C57.815625,81.60125 58.375,81.041875 59.065625,81.041875 L61.565625,81.041875 C62.255625,81.041875 62.815625,81.60125 62.815625,82.291875 Z M53.440625,82.291875 C53.440625,82.981875 52.880625,83.541875 52.190625,83.541875 L49.690625,83.541875 C49,83.541875 48.440625,82.981875 48.440625,82.291875 C48.440625,81.60125 49,81.041875 49.690625,81.041875 L52.190625,81.041875 C52.880625,81.041875 53.440625,81.60125 53.440625,82.291875 Z M14.57625,74.575625 L14.57625,71.140625 L18.0975,71.140625 L18.0975,74.575625 C18.0975,74.939375 17.893125,75.2525 17.595625,75.416875 L15.078125,75.416875 C14.780625,75.2525 14.57625,74.939375 14.57625,74.575625 Z M9.68,65.031875 L9.68,33.685 C9.68,31.59375 11.3825,29.891875 13.47375,29.891875 L38.745,29.891875 C40.836875,29.891875 42.53875,31.59375 42.53875,33.685 L42.53875,65.031875 C42.53875,67.12375 40.836875,68.825625 38.745,68.825625 L13.47375,68.825625 C11.3825,68.825625 9.68,67.12375 9.68,65.031875 Z M5.645,37.169375 C4.125,37.169375 2.889375,38.40625 2.889375,39.925625 L2.889375,44.149375 C2.889375,44.179375 2.864375,44.204375 2.83375,44.204375 L2.645625,44.204375 L2.645625,38.486875 C2.645625,37.849375 2.849375,37.350625 3.286875,36.9175 C4.2475,35.966875 6.093125,35.599375 7.365625,35.474375 L7.365625,37.169375 L5.645,37.169375 Z M49.44,38.486875 L49.44,44.204375 L49.251875,44.204375 C49.221875,44.204375 49.196875,44.179375 49.196875,44.149375 L49.196875,39.925625 C49.196875,38.40625 47.960625,37.169375 46.440625,37.169375 L44.853125,37.169375 L44.853125,35.48875 C46.118125,35.62625 47.87125,36 48.79875,36.9175 C49.23625,37.350625 49.44,37.849375 49.44,38.486875 Z M20.411875,71.140625 L31.806875,71.140625 L31.806875,74.575625 C31.806875,74.868125 31.858125,75.146875 31.93,75.416875 L20.28875,75.416875 C20.36125,75.146875 20.411875,74.868125 20.411875,74.575625 L20.411875,71.140625 Z M34.62375,75.416875 C34.325625,75.2525 34.12125,74.939375 34.12125,74.575625 L34.12125,71.140625 L37.6425,71.140625 L37.6425,74.575625 C37.6425,74.939375 37.438125,75.2525 37.140625,75.416875 L34.62375,75.416875 Z M63.52125,44.37 C63.52125,41.83875 65.580625,39.78 68.111875,39.78 C70.643125,39.78 72.7025,41.83875 72.7025,44.37 C72.7025,46.90125 70.643125,48.960625 68.111875,48.960625 C65.580625,48.960625 63.52125,46.90125 63.52125,44.37 Z M78.440625,75.416875 L69.065625,75.416875 L69.065625,51.201875 C72.421875,50.735 75.016875,47.85375 75.016875,44.37 C75.016875,40.5625 71.919375,37.465 68.111875,37.465 C64.304375,37.465 61.206875,40.5625 61.206875,44.37 C61.206875,47.64875 63.505625,50.395 66.574375,51.096875 C66.571875,51.13 66.565625,51.16125 66.565625,51.195 L66.565625,75.416875 L39.834375,75.416875 C39.90625,75.146875 39.956875,74.868125 39.956875,74.575625 L39.956875,71.01875 C42.746875,70.455 44.853125,67.985 44.853125,65.031875 L44.853125,39.484375 L46.440625,39.484375 C46.68375,39.484375 46.881875,39.6825 46.881875,39.925625 L46.881875,44.149375 C46.881875,45.455625 47.945625,46.519375 49.251875,46.519375 L49.585,46.519375 C50.78125,46.519375 51.754375,45.545625 51.754375,44.34875 L51.754375,38.486875 C51.754375,37.24125 51.29375,36.128125 50.421875,35.2675 C48.8525,33.71875 46.3125,33.274375 44.82625,33.15 C44.55375,30.031875 41.9325,27.576875 38.745,27.576875 L13.47375,27.576875 C10.29,27.576875 7.670625,30.02625 7.393125,33.13875 C5.929375,33.2475 3.28125,33.67125 1.66375,35.2675 C0.791875,36.128125 0.33125,37.24125 0.33125,38.486875 L0.33125,44.34875 C0.33125,45.545625 1.305,46.519375 2.50125,46.519375 L2.83375,46.519375 C4.140625,46.519375 5.20375,45.455625 5.20375,44.149375 L5.20375,39.925625 C5.20375,39.6825 5.401875,39.484375 5.645,39.484375 L7.365625,39.484375 L7.365625,65.031875 C7.365625,67.985 9.471875,70.455 12.261875,71.01875 L12.261875,74.575625 C12.261875,74.868125 12.3125,75.146875 12.385,75.416875 L7.815625,75.416875 C7.125,75.416875 6.565625,75.97625 6.565625,76.666875 C6.565625,77.356875 7.125,77.916875 7.815625,77.916875 L78.440625,77.916875 C79.130625,77.916875 79.690625,77.356875 79.690625,76.666875 C79.690625,75.97625 79.130625,75.416875 78.440625,75.416875 Z M59.196875,37.873125 C58.7225,37.444375 58.685625,36.7125 59.115,36.238125 C61.410625,33.69875 64.690625,32.241875 68.111875,32.241875 C68.75125,32.241875 69.269375,32.76 69.269375,33.399375 C69.269375,34.03875 68.75125,34.556875 68.111875,34.556875 C65.343125,34.556875 62.689375,35.735625 60.83125,37.790625 C60.603125,38.04375 60.28875,38.171875 59.9725,38.171875 C59.695625,38.171875 59.418125,38.073125 59.196875,37.873125 Z M71.3975,33.835625 C71.65125,33.249375 72.33125,32.978125 72.919375,33.2325 C73.2125,33.359375 73.499375,33.4975 73.78,33.645625 C74.345625,33.944375 74.56125,34.645 74.2625,35.21 C74.055,35.6025 73.65375,35.826875 73.238125,35.826875 C73.055625,35.826875 72.870625,35.78375 72.69875,35.6925 C72.470625,35.571875 72.23875,35.46 72.00125,35.3575 C71.41375,35.10375 71.144375,34.4225 71.3975,33.835625 Z M37.190625,13.541875 C37.190625,12.85125 37.75,12.291875 38.440625,12.291875 L40.315625,12.291875 C41.005625,12.291875 41.565625,12.85125 41.565625,13.541875 C41.565625,14.231875 41.005625,14.791875 40.315625,14.791875 L38.440625,14.791875 C37.75,14.791875 37.190625,14.231875 37.190625,13.541875 Z M5.940625,13.541875 C5.940625,12.85125 6.5,12.291875 7.190625,12.291875 L33.440625,12.291875 C34.130625,12.291875 34.690625,12.85125 34.690625,13.541875 C34.690625,14.231875 34.130625,14.791875 33.440625,14.791875 L7.190625,14.791875 C6.5,14.791875 5.940625,14.231875 5.940625,13.541875 Z M12.815625,19.791875 L42.190625,19.791875 C42.880625,19.791875 43.440625,20.35125 43.440625,21.041875 C43.440625,21.731875 42.880625,22.291875 42.190625,22.291875 L12.815625,22.291875 C12.125,22.291875 11.565625,21.731875 11.565625,21.041875 C11.565625,20.35125 12.125,19.791875 12.815625,19.791875 Z M5.940625,21.041875 C5.940625,20.35125 6.5,19.791875 7.190625,19.791875 L9.065625,19.791875 C9.755625,19.791875 10.315625,20.35125 10.315625,21.041875 C10.315625,21.731875 9.755625,22.291875 9.065625,22.291875 L7.190625,22.291875 C6.5,22.291875 5.940625,21.731875 5.940625,21.041875 Z M65.686875,20.38625 L64.330625,19.03 C63.87875,18.578125 63.879375,17.845 64.330625,17.393125 C64.7825,16.94125 65.51625,16.94125 65.9675,17.39375 L67.32375,18.75 C67.77625,19.201875 67.775625,19.934375 67.32375,20.386875 C67.098125,20.6125 66.80125,20.725625 66.505625,20.725625 C66.209375,20.725625 65.913125,20.6125 65.686875,20.38625 Z M50.764375,5.464375 C50.313125,5.011875 50.3125,4.279375 50.764375,3.8275 C51.21625,3.375 51.94875,3.375625 52.40125,3.826875 L53.758125,5.18375 C54.21,5.635625 54.21,6.368125 53.758125,6.820625 C53.5325,7.04625 53.235625,7.16 52.94,7.16 C52.64375,7.16 52.348125,7.04625 52.12125,6.820625 L50.764375,5.464375 Z M53.758125,17.39375 C54.21,17.845625 54.21,18.578125 53.758125,19.03 L52.40125,20.386875 C52.175625,20.6125 51.879375,20.725625 51.583125,20.725625 C51.286875,20.725625 50.990625,20.6125 50.764375,20.38625 C50.3125,19.934375 50.313125,19.201875 50.764375,18.749375 L52.12125,17.393125 C52.573125,16.94125 53.306875,16.94125 53.758125,17.39375 Z M64.330625,6.820625 C63.879375,6.36875 63.87875,5.63625 64.330625,5.18375 L65.686875,3.8275 C66.13875,3.375 66.87125,3.375625 67.32375,3.826875 C67.775625,4.279375 67.77625,5.011875 67.32375,5.46375 L65.9675,6.820625 C65.741875,7.04625 65.445625,7.16 65.149375,7.16 C64.853125,7.16 64.5575,7.04625 64.330625,6.820625 Z M67.190625,10.416875 L69.690625,10.416875 C70.380625,10.416875 70.940625,10.97625 70.940625,11.666875 C70.940625,12.356875 70.380625,12.916875 69.690625,12.916875 L67.190625,12.916875 C66.5,12.916875 65.940625,12.356875 65.940625,11.666875 C65.940625,10.97625 66.5,10.416875 67.190625,10.416875 Z M47.815625,11.666875 C47.815625,10.97625 48.375,10.416875 49.065625,10.416875 L50.315625,10.416875 C51.005625,10.416875 51.565625,10.97625 51.565625,11.666875 C51.565625,12.356875 51.005625,12.916875 50.315625,12.916875 L49.065625,12.916875 C48.375,12.916875 47.815625,12.356875 47.815625,11.666875 Z M59.065625,23.541875 C58.375,23.541875 57.815625,22.981875 57.815625,22.291875 L57.815625,21.041875 C57.815625,20.35125 58.375,19.791875 59.065625,19.791875 C59.755625,19.791875 60.315625,20.35125 60.315625,21.041875 L60.315625,22.291875 C60.315625,22.981875 59.755625,23.541875 59.065625,23.541875 Z M57.815625,2.916875 L57.815625,1.666875 C57.815625,0.97625 58.375,0.416875 59.065625,0.416875 C59.755625,0.416875 60.315625,0.97625 60.315625,1.666875 L60.315625,2.916875 C60.315625,3.606875 59.755625,4.166875 59.065625,4.166875 C58.375,4.166875 57.815625,3.606875 57.815625,2.916875 Z M59.2575,9.4275 C60.6175,9.4275 61.72375,10.53375 61.72375,11.89375 C61.72375,13.25375 60.6175,14.36 59.2575,14.36 C57.8975,14.36 56.79125,13.25375 56.79125,11.89375 C56.79125,10.53375 57.8975,9.4275 59.2575,9.4275 Z M59.2575,16.675 C61.89375,16.675 64.03875,14.53 64.03875,11.89375 C64.03875,9.2575 61.89375,7.1125 59.2575,7.1125 C56.62125,7.1125 54.476875,9.2575 54.476875,11.89375 C54.476875,14.53 56.62125,16.675 59.2575,16.675 Z M34.743125,65.7075 C34.235,65.7075 33.821875,65.295 33.821875,64.786875 C33.821875,64.279375 34.235,63.86625 34.743125,63.86625 C35.250625,63.86625 35.66375,64.279375 35.66375,64.786875 C35.66375,65.295 35.250625,65.7075 34.743125,65.7075 Z M34.743125,61.550625 C32.95875,61.550625 31.5075,63.0025 31.5075,64.786875 C31.5075,66.57125 32.95875,68.0225 34.743125,68.0225 C36.526875,68.0225 37.978125,66.57125 37.978125,64.786875 C37.978125,63.0025 36.526875,61.550625 34.743125,61.550625 Z M17.47625,65.7075 C16.968125,65.7075 16.555,65.295 16.555,64.786875 C16.555,64.279375 16.968125,63.86625 17.47625,63.86625 C17.98375,63.86625 18.396875,64.279375 18.396875,64.786875 C18.396875,65.295 17.98375,65.7075 17.47625,65.7075 Z M17.47625,61.550625 C15.691875,61.550625 14.240625,63.0025 14.240625,64.786875 C14.240625,66.57125 15.691875,68.0225 17.47625,68.0225 C19.26,68.0225 20.71125,66.57125 20.71125,64.786875 C20.71125,63.0025 19.26,61.550625 17.47625,61.550625 Z M15.435625,37.8125 C15.435625,35.720625 17.138125,34.019375 19.229375,34.019375 L32.989375,34.019375 C35.08125,34.019375 36.783125,35.720625 36.783125,37.8125 L36.783125,53.61375 C36.783125,55.705625 35.08125,57.4075 32.989375,57.4075 L19.229375,57.4075 C17.138125,57.4075 15.435625,55.705625 15.435625,53.61375 L15.435625,37.8125 Z M19.229375,59.7225 L32.989375,59.7225 C36.358125,59.7225 39.0975,56.981875 39.0975,53.61375 L39.0975,37.8125 C39.0975,34.444375 36.358125,31.704375 32.989375,31.704375 L19.229375,31.704375 C15.86125,31.704375 13.12125,34.444375 13.12125,37.8125 L13.12125,53.61375 C13.12125,56.981875 15.86125,59.7225 19.229375,59.7225 L19.229375,59.7225 Z" id="Fill-47" fill="#23375B"></path>
                            <path d="M28.5075,39.28625 C28.5075,41.008125 29.90375,42.40375 31.625,42.40375 C33.346875,42.40375 34.743125,41.008125 34.743125,39.28625 C34.743125,37.564375 33.346875,36.16875 31.625,36.16875 C29.90375,36.16875 28.5075,37.564375 28.5075,39.28625" id="Fill-48" fill="#FFFFFE"></path>
                            <path d="M32.105,45.241875 C32.105,46.146875 32.83875,46.880625 33.74375,46.880625 C34.64875,46.880625 35.3825,46.146875 35.3825,45.241875 C35.3825,44.336875 34.64875,43.603125 33.74375,43.603125 C32.83875,43.603125 32.105,44.336875 32.105,45.241875" id="Fill-49" fill="#FFFFFE"></path>
                        </g>
                    </g>
                </g>
            </g>
        </g>
    </g>
</svg>