
<svg width="80px" height="79px" viewBox="0 0 80 79" version="1.1" xmlns="http://www.w3.org/2000/svg" xmlns:xlink="http://www.w3.org/1999/xlink">
    <!-- Generator: Sketch 45.1 (43504) - http://www.bohemiancoding.com/sketch -->
    <desc>Created with Sketch.</desc>
    <defs></defs>
    <g id="Лендинг" stroke="none" stroke-width="1" fill="none" fill-rule="evenodd">
        <g id="лендинг---главный-экран-(1280х768)" transform="translate(-928.000000, -1797.000000)">
            <g id="третий-экран" transform="translate(0.000000, 1712.000000)">
                <g id="где-мы-размещаемся" transform="translate(1.000000, 0.000000)">
                    <g id="гостиницы-и-хсотелы" transform="translate(907.000000, 51.000000)">
                        <g id="Group-2" transform="translate(20.000000, 34.000000)">
                            <polyline id="Fill-33" fill="#BC242A" points="59.1243411 59.4815504 59.1243411 55.7172093 54.6623256 52.1004651 44.168062 47.875969 34.9451163 48.8167442 29.2564341 50.3795349 31.2390698 53.1299225 31.1906977 56.0831008 26.2213953 57.1007752 18.0669767 53.575814 14.631938 49.9894574 13.2545736 50.2282171 14.140155 59.6905426 59.1243411 59.4815504"></polyline>
                            <polygon id="Fill-34" fill="#FFFFFE" points="5.80465116 70.3807752 13.2539535 70.3807752 13.2539535 46.8564341 5.80465116 46.8564341"></polygon>
                            <polygon id="Fill-35" fill="#FFFFFE" points="59.3612403 70.3807752 66.8111628 70.3807752 66.8111628 53.1299225 59.3612403 53.1299225"></polygon>
                            <path d="M31.1844961,56.0831008 C31.1844961,56.0831008 32.0731783,51.4486822 25.6955039,47.2328682 C19.059845,42.8458915 14.2474419,44.844031 14.2474419,44.844031 C14.2474419,44.844031 12.4384496,49.8852713 17.6663566,53.315969 C22.6852713,56.6096124 26.8458915,58.3311628 31.1844961,56.0831008" id="Fill-36" fill="#DDE4F0"></path>
                            <polygon id="Fill-37" fill="#DDE4F0" points="21.2 33.448062 27.4728682 33.448062 27.4728682 27.0964341 21.2 27.0964341"></polygon>
                            <polygon id="Fill-38" fill="#DDE4F0" points="36.7782946 33.448062 43.0511628 33.448062 43.0511628 27.0964341 36.7782946 27.0964341"></polygon>
                            <polygon id="Fill-39" fill="#DDE4F0" points="52.3565891 33.448062 58.6294574 33.448062 58.6294574 27.0964341 52.3565891 27.0964341"></polygon>
                            <path d="M12.6127132,8.68217054 C12.6127132,7.99751938 13.1677519,7.44186047 13.8530233,7.44186047 L16.9537984,7.44186047 C17.6384496,7.44186047 18.1941085,7.99751938 18.1941085,8.68217054 C18.1941085,9.36744186 17.6384496,9.92248062 16.9537984,9.92248062 L13.8530233,9.92248062 C13.1677519,9.92248062 12.6127132,9.36744186 12.6127132,8.68217054 Z M3.3103876,8.68217054 C3.3103876,7.99751938 3.86542636,7.44186047 4.55069767,7.44186047 L7.65147287,7.44186047 C8.33612403,7.44186047 8.89178295,7.99751938 8.89178295,8.68217054 C8.89178295,9.36744186 8.33612403,9.92248062 7.65147287,9.92248062 L4.55069767,9.92248062 C3.86542636,9.92248062 3.3103876,9.36744186 3.3103876,8.68217054 Z M10.132093,15.503876 C9.44682171,15.503876 8.89178295,14.9488372 8.89178295,14.2635659 L8.89178295,11.1627907 C8.89178295,10.4781395 9.44682171,9.92248062 10.132093,9.92248062 C10.8167442,9.92248062 11.3724031,10.4781395 11.3724031,11.1627907 L11.3724031,14.2635659 C11.3724031,14.9488372 10.8167442,15.503876 10.132093,15.503876 Z M8.89178295,5.58139535 L8.89178295,3.10077519 C8.89178295,2.41612403 9.44682171,1.86046512 10.132093,1.86046512 C10.8167442,1.86046512 11.3724031,2.41612403 11.3724031,3.10077519 L11.3724031,5.58139535 C11.3724031,6.26666667 10.8167442,6.82170543 10.132093,6.82170543 C9.44682171,6.82170543 8.89178295,6.26666667 8.89178295,5.58139535 Z M53.5044961,32.2995349 L57.4815504,32.2995349 L57.4815504,28.2443411 L53.5044961,28.2443411 L53.5044961,32.2995349 Z M52.3565891,34.595969 L58.6294574,34.595969 C59.263876,34.595969 59.7779845,34.0818605 59.7779845,33.448062 L59.7779845,27.0964341 C59.7779845,26.4620155 59.263876,25.947907 58.6294574,25.947907 L52.3565891,25.947907 C51.7221705,25.947907 51.208062,26.4620155 51.208062,27.0964341 L51.208062,33.448062 C51.208062,34.0818605 51.7221705,34.595969 52.3565891,34.595969 Z M37.9262016,32.2995349 L41.9026357,32.2995349 L41.9026357,28.2443411 L37.9262016,28.2443411 L37.9262016,32.2995349 Z M36.7782946,34.595969 L43.0511628,34.595969 C43.6849612,34.595969 44.1996899,34.0818605 44.1996899,33.448062 L44.1996899,27.0964341 C44.1996899,26.4620155 43.6849612,25.947907 43.0511628,25.947907 L36.7782946,25.947907 C36.143876,25.947907 35.6297674,26.4620155 35.6297674,27.0964341 L35.6297674,33.448062 C35.6297674,34.0818605 36.143876,34.595969 36.7782946,34.595969 Z M22.347907,32.2995349 L26.3243411,32.2995349 L26.3243411,28.2443411 L22.347907,28.2443411 L22.347907,32.2995349 Z M21.2,34.595969 L27.4728682,34.595969 C28.1066667,34.595969 28.6207752,34.0818605 28.6207752,33.448062 L28.6207752,27.0964341 C28.6207752,26.4620155 28.1066667,25.947907 27.4728682,25.947907 L21.2,25.947907 C20.5655814,25.947907 20.0514729,26.4620155 20.0514729,27.0964341 L20.0514729,33.448062 C20.0514729,34.0818605 20.5655814,34.595969 21.2,34.595969 Z M6.96682171,22.5494574 L39.4306977,0.72372093 C39.8182946,0.463255814 40.3243411,0.463255814 40.711938,0.72372093 L73.175814,22.5494574 C73.7023256,22.9035659 73.8418605,23.6167442 73.4883721,24.1432558 C73.2669767,24.4725581 72.9035659,24.6505426 72.5339535,24.6505426 C72.3131783,24.6505426 72.0911628,24.587907 71.8945736,24.455814 L40.0713178,3.06108527 L8.24868217,24.455814 C7.72155039,24.8099225 7.00899225,24.6703876 6.65426357,24.1432558 C6.30077519,23.6167442 6.44093023,22.9035659 6.96682171,22.5494574 Z M57.6365891,47.1937984 C58.099845,47.6266667 58.1246512,48.3534884 57.6911628,48.8173643 C57.4648062,49.0592248 57.1590698,49.1813953 56.852093,49.1813953 C56.5711628,49.1813953 56.2896124,49.0790698 56.0675969,48.8725581 C55.3134884,48.1674419 54.2889922,47.2967442 54.2784496,47.2874419 C53.7953488,46.8768992 53.7364341,46.151938 54.1475969,45.6688372 C54.5581395,45.1857364 55.2824806,45.1268217 55.7662016,45.5373643 C55.8096124,45.5745736 56.8415504,46.452093 57.6365891,47.1937984 Z M31.7835659,41.4610853 C31.660155,40.8390698 32.063876,40.2344186 32.6858915,40.1103876 C33.2049612,40.008062 45.4654264,37.652093 53.0071318,43.4821705 C53.5082171,43.8697674 53.6012403,44.5910078 53.2130233,45.0927132 C52.9866667,45.3854264 52.6474419,45.5386047 52.303876,45.5386047 C52.0582946,45.5386047 51.8108527,45.4604651 51.6018605,45.2986047 C44.88,40.1017054 33.2508527,42.339845 33.1342636,42.3634109 C32.5134884,42.4868217 31.9075969,42.0831008 31.7835659,41.4610853 Z M68.4266667,76.8992248 C68.4266667,77.5844961 67.8710078,78.1395349 67.1863566,78.1395349 L65.9460465,78.1395349 C65.2607752,78.1395349 64.7057364,77.5844961 64.7057364,76.8992248 C64.7057364,76.2145736 65.2607752,75.6589147 65.9460465,75.6589147 L67.1863566,75.6589147 C67.8710078,75.6589147 68.4266667,76.2145736 68.4266667,76.8992248 Z M63.4654264,76.8992248 C63.4654264,77.5844961 62.9097674,78.1395349 62.2251163,78.1395349 L12.6127132,78.1395349 C11.9274419,78.1395349 11.3724031,77.5844961 11.3724031,76.8992248 C11.3724031,76.2145736 11.9274419,75.6589147 12.6127132,75.6589147 L62.2251163,75.6589147 C62.9097674,75.6589147 63.4654264,76.2145736 63.4654264,76.8992248 Z M14.4024806,69.4573643 L58.2133333,69.4573643 L58.2133333,65.9621705 L14.4024806,65.9621705 L14.4024806,69.4573643 Z M6.95255814,69.2328682 L12.1054264,69.2328682 L12.1054264,48.0043411 L6.95255814,48.0043411 L6.95255814,69.2328682 Z M16.4936434,24.6499225 L40.0713178,8.79813953 L63.6502326,24.6499225 L63.6502326,51.9820155 L59.3618605,51.9820155 C58.7274419,51.9820155 58.2133333,52.496124 58.2133333,53.1299225 L58.2133333,53.3556589 C54.3472868,50.0632558 43.8672868,43.1156589 29.1962791,48.6108527 C28.4328682,47.831938 27.4939535,47.0449612 26.3293023,46.2747287 C22.2244961,43.5615504 18.7386047,43.1299225 16.4936434,43.2620155 L16.4936434,24.6499225 Z M14.4024806,63.6651163 L58.2133333,63.6651163 L58.2133333,60.6294574 L14.4024806,60.6294574 L14.4024806,63.6651163 Z M60.5097674,69.2328682 L65.6626357,69.2328682 L65.6626357,54.2784496 L60.5097674,54.2784496 L60.5097674,69.2328682 Z M30.0806202,55.335814 C26.4477519,56.8905426 22.8465116,55.3413953 18.2964341,52.355969 C14.7900775,50.0539535 14.9612403,46.9699225 15.1968992,45.7525581 C16.5017054,45.4368992 20.2114729,44.9829457 25.0623256,48.1910078 C29.484031,51.1137984 30.0502326,54.1271318 30.0806202,55.335814 Z M14.4024806,51.8071318 C15.0381395,52.6815504 15.8927132,53.5249612 17.0368992,54.275969 C20.6604651,56.6548837 23.9168992,58.2567442 27.1423256,58.2567442 C28.6604651,58.2567442 30.1730233,57.9007752 31.7128682,57.1032558 C32.0254264,56.9420155 32.2462016,56.6455814 32.311938,56.2995349 C32.3417054,56.1469767 32.7882171,53.5795349 30.7324031,50.4893023 C47.4393798,44.6511628 57.6955039,55.9286822 58.1351938,56.4254264 C58.1593798,56.452093 58.187907,56.471938 58.2133333,56.4967442 L58.2133333,58.3330233 L14.4024806,58.3330233 L14.4024806,51.8071318 Z M78.3491473,69.4573643 L67.9590698,69.4573643 L67.9590698,53.1299225 C67.9590698,52.496124 67.4449612,51.9820155 66.8105426,51.9820155 L65.9466667,51.9820155 L65.9466667,24.0396899 C65.9466667,23.9627907 65.9386047,23.8871318 65.9237209,23.812093 C65.9175194,23.7804651 65.9051163,23.7513178 65.8964341,23.7203101 C65.8846512,23.6793798 65.8753488,23.6384496 65.8586047,23.5987597 C65.8455814,23.5671318 65.8275969,23.5386047 65.8114729,23.5088372 C65.7928682,23.4722481 65.776124,23.4356589 65.7531783,23.4015504 C65.7351938,23.3736434 65.7122481,23.3500775 65.6917829,23.3246512 C65.6657364,23.2924031 65.6421705,23.2582946 65.6124031,23.2285271 C65.5652713,23.1807752 65.5131783,23.1392248 65.4586047,23.1007752 C65.4511628,23.095814 65.4462016,23.0896124 65.4393798,23.0846512 L40.711938,6.46077519 C40.3243411,6.20031008 39.8182946,6.20031008 39.4306977,6.46077519 L14.7044961,23.0846512 C14.6970543,23.0896124 14.692093,23.095814 14.6852713,23.1007752 C14.6306977,23.1392248 14.5779845,23.1807752 14.5314729,23.2285271 C14.5017054,23.2582946 14.4775194,23.2924031 14.452093,23.3246512 C14.4310078,23.3500775 14.408062,23.3736434 14.3900775,23.4015504 C14.3671318,23.4356589 14.3510078,23.4722481 14.3317829,23.5088372 C14.3162791,23.5386047 14.2976744,23.5671318 14.2846512,23.5987597 C14.2685271,23.6384496 14.2586047,23.6793798 14.2468217,23.7203101 C14.2381395,23.7513178 14.2257364,23.7804651 14.2195349,23.812093 C14.2046512,23.8871318 14.1972093,23.9627907 14.1972093,24.0396899 L14.1972093,43.6483721 C13.9733333,43.7165891 13.8381395,43.7705426 13.8071318,43.7835659 C13.5082171,43.9069767 13.2750388,44.151938 13.1658915,44.4564341 C13.0418605,44.8024806 12.9376744,45.2297674 12.8694574,45.707907 L5.80403101,45.707907 C5.17023256,45.707907 4.65612403,46.2220155 4.65612403,46.8564341 L4.65612403,69.4573643 L1.44992248,69.4573643 C0.764651163,69.4573643 0.209612403,70.0130233 0.209612403,70.6976744 C0.209612403,71.3829457 0.764651163,71.9379845 1.44992248,71.9379845 L78.3491473,71.9379845 C79.0337984,71.9379845 79.5894574,71.3829457 79.5894574,70.6976744 C79.5894574,70.0130233 79.0337984,69.4573643 78.3491473,69.4573643 L78.3491473,69.4573643 Z" id="Fill-40" fill="#23375B"></path>
                        </g>
                    </g>
                </g>
            </g>
        </g>
    </g>
</svg>